<mxfile host="app.diagrams.net" modified="2024-04-10T07:33:37.819Z" agent="Mozilla/5.0 (Windows NT 10.0; Win64; x64) AppleWebKit/537.36 (KHTML, like Gecko) Chrome/123.0.0.0 Safari/537.36" etag="BYEKUA3IVho1cofzh7oi" version="24.2.2" type="github">
  <diagram name="Page-1" id="HJv14Mo4Y6LTN4TdP-jg">
    <mxGraphModel dx="7342" dy="2232" grid="0" gridSize="10" guides="1" tooltips="1" connect="1" arrows="1" fold="1" page="0" pageScale="1" pageWidth="827" pageHeight="1169" math="0" shadow="0">
      <root>
        <mxCell id="0" />
        <mxCell id="1" parent="0" />
        <mxCell id="54rXU-yoeSsOBFBmQ2Yl-107" value="&lt;b style=&quot;&quot;&gt;&lt;font style=&quot;font-size: 65px;&quot;&gt;Relational&lt;/font&gt;&lt;/b&gt;" style="text;html=1;strokeColor=none;fillColor=none;align=center;verticalAlign=middle;whiteSpace=wrap;rounded=0;" parent="1" vertex="1">
          <mxGeometry x="-3050" y="-452" width="242" height="80" as="geometry" />
        </mxCell>
        <mxCell id="54rXU-yoeSsOBFBmQ2Yl-108" value="" style="group" parent="1" vertex="1" connectable="0">
          <mxGeometry x="-4290" y="-263" width="272" height="121" as="geometry" />
        </mxCell>
        <mxCell id="54rXU-yoeSsOBFBmQ2Yl-109" value="&lt;b&gt;Legend&lt;/b&gt;" style="whiteSpace=wrap;html=1;align=center;container=0;" parent="54rXU-yoeSsOBFBmQ2Yl-108" vertex="1">
          <mxGeometry width="272" height="30" as="geometry" />
        </mxCell>
        <mxCell id="54rXU-yoeSsOBFBmQ2Yl-110" value="&lt;b style=&quot;border-color: var(--border-color);&quot;&gt;Black Bold - PK&amp;nbsp;&lt;/b&gt;" style="whiteSpace=wrap;html=1;align=center;container=0;" parent="54rXU-yoeSsOBFBmQ2Yl-108" vertex="1">
          <mxGeometry y="30" width="272" height="31" as="geometry" />
        </mxCell>
        <mxCell id="54rXU-yoeSsOBFBmQ2Yl-111" value="&lt;b style=&quot;border-color: var(--border-color);&quot;&gt;&lt;font color=&quot;#3399ff&quot;&gt;Blue Bold&lt;/font&gt;&amp;nbsp; &amp;nbsp;- FK&amp;nbsp;&lt;/b&gt;" style="whiteSpace=wrap;html=1;align=center;container=0;" parent="54rXU-yoeSsOBFBmQ2Yl-108" vertex="1">
          <mxGeometry y="61" width="272" height="30" as="geometry" />
        </mxCell>
        <mxCell id="54rXU-yoeSsOBFBmQ2Yl-112" value="&lt;b style=&quot;border-color: var(--border-color);&quot;&gt;&lt;font color=&quot;#00994d&quot;&gt;Green Bold&amp;nbsp; &amp;nbsp;&lt;/font&gt;- Index&lt;/b&gt;" style="whiteSpace=wrap;html=1;align=center;container=0;" parent="54rXU-yoeSsOBFBmQ2Yl-108" vertex="1">
          <mxGeometry y="91" width="272" height="30" as="geometry" />
        </mxCell>
        <mxCell id="54rXU-yoeSsOBFBmQ2Yl-114" value="" style="group;strokeColor=default;container=0;" parent="1" vertex="1" connectable="0">
          <mxGeometry x="-3645" y="-260.85" width="1464" height="1007.85" as="geometry" />
        </mxCell>
        <mxCell id="T6x4TMaedT_7HnLKrfu--288" style="rounded=0;orthogonalLoop=1;jettySize=auto;html=1;endArrow=none;endFill=0;shape=link;" edge="1" source="T6x4TMaedT_7HnLKrfu--289" target="T6x4TMaedT_7HnLKrfu--292" parent="1">
          <mxGeometry relative="1" as="geometry" />
        </mxCell>
        <mxCell id="T6x4TMaedT_7HnLKrfu--289" value="&lt;b style=&quot;border-color: var(--border-color); color: rgb(255, 51, 51);&quot;&gt;Users&lt;/b&gt;" style="whiteSpace=wrap;html=1;align=center;fillColor=none;strokeColor=default;" vertex="1" parent="1">
          <mxGeometry x="-1471.6200000000001" y="-203.75" width="70" height="30" as="geometry" />
        </mxCell>
        <mxCell id="T6x4TMaedT_7HnLKrfu--290" style="edgeStyle=orthogonalEdgeStyle;rounded=0;orthogonalLoop=1;jettySize=auto;html=1;strokeColor=default;align=center;verticalAlign=middle;fontFamily=Helvetica;fontSize=11;fontColor=default;labelBackgroundColor=default;endArrow=none;endFill=0;" edge="1" source="T6x4TMaedT_7HnLKrfu--292" target="T6x4TMaedT_7HnLKrfu--308" parent="1">
          <mxGeometry relative="1" as="geometry" />
        </mxCell>
        <mxCell id="T6x4TMaedT_7HnLKrfu--291" style="rounded=0;orthogonalLoop=1;jettySize=auto;html=1;strokeColor=default;align=center;verticalAlign=middle;fontFamily=Helvetica;fontSize=11;fontColor=default;labelBackgroundColor=default;endArrow=none;endFill=0;edgeStyle=orthogonalEdgeStyle;" edge="1" source="T6x4TMaedT_7HnLKrfu--292" target="T6x4TMaedT_7HnLKrfu--293" parent="1">
          <mxGeometry relative="1" as="geometry" />
        </mxCell>
        <mxCell id="T6x4TMaedT_7HnLKrfu--292" value="ISA&lt;br style=&quot;font-size: 19px;&quot;&gt;" style="triangle;rotation=0;html=1;labelBorderColor=none;fontStyle=1;spacingLeft=0;direction=south;fontSize=19;spacingTop=-10;fillColor=#d5e8d4;strokeColor=#82b366;fontFamily=Helvetica;fontColor=default;labelBackgroundColor=none;textShadow=0;" vertex="1" parent="1">
          <mxGeometry x="-1475.38" y="-156.75" width="77.5" height="60" as="geometry" />
        </mxCell>
        <mxCell id="T6x4TMaedT_7HnLKrfu--293" value="&lt;b style=&quot;border-color: var(--border-color); color: rgb(255, 51, 51);&quot;&gt;Patients&lt;/b&gt;" style="whiteSpace=wrap;html=1;align=center;fillColor=none;strokeColor=default;" vertex="1" parent="1">
          <mxGeometry x="-1183.88" y="60.25" width="70" height="30" as="geometry" />
        </mxCell>
        <mxCell id="T6x4TMaedT_7HnLKrfu--728" style="edgeStyle=none;rounded=0;orthogonalLoop=1;jettySize=auto;html=1;strokeColor=default;align=center;verticalAlign=middle;fontFamily=Helvetica;fontSize=11;fontColor=default;labelBackgroundColor=default;endArrow=none;endFill=0;" edge="1" parent="1" source="T6x4TMaedT_7HnLKrfu--308" target="T6x4TMaedT_7HnLKrfu--727">
          <mxGeometry relative="1" as="geometry" />
        </mxCell>
        <mxCell id="T6x4TMaedT_7HnLKrfu--308" value="&lt;b style=&quot;border-color: var(--border-color); color: rgb(255, 51, 51);&quot;&gt;Doctors&lt;/b&gt;" style="whiteSpace=wrap;html=1;align=center;fillColor=none;strokeColor=default;" vertex="1" parent="1">
          <mxGeometry x="-1766.63" y="60.25" width="70" height="30" as="geometry" />
        </mxCell>
        <mxCell id="T6x4TMaedT_7HnLKrfu--311" style="edgeStyle=none;rounded=0;orthogonalLoop=1;jettySize=auto;html=1;strokeColor=default;align=center;verticalAlign=middle;fontFamily=Helvetica;fontSize=11;fontColor=default;labelBackgroundColor=default;endArrow=none;endFill=0;startArrow=block;startFill=1;" edge="1" source="T6x4TMaedT_7HnLKrfu--312" target="T6x4TMaedT_7HnLKrfu--323" parent="1">
          <mxGeometry relative="1" as="geometry">
            <mxPoint x="-522.31" y="380.74" as="targetPoint" />
          </mxGeometry>
        </mxCell>
        <mxCell id="T6x4TMaedT_7HnLKrfu--312" value="&lt;b style=&quot;border-color: var(--border-color); color: rgb(255, 51, 51);&quot;&gt;Equipments&lt;/b&gt;" style="whiteSpace=wrap;html=1;align=center;fillColor=none;strokeColor=default;" vertex="1" parent="1">
          <mxGeometry x="-960.2500000000001" y="419.25" width="81" height="30" as="geometry" />
        </mxCell>
        <mxCell id="T6x4TMaedT_7HnLKrfu--315" style="edgeStyle=none;rounded=0;orthogonalLoop=1;jettySize=auto;html=1;strokeColor=default;align=center;verticalAlign=middle;fontFamily=Helvetica;fontSize=11;fontColor=default;labelBackgroundColor=default;endArrow=none;endFill=0;shape=link;" edge="1" source="T6x4TMaedT_7HnLKrfu--316" target="T6x4TMaedT_7HnLKrfu--323" parent="1">
          <mxGeometry relative="1" as="geometry">
            <mxPoint x="-1101.2298001737618" y="258.5401737619461" as="targetPoint" />
          </mxGeometry>
        </mxCell>
        <mxCell id="T6x4TMaedT_7HnLKrfu--316" value="&lt;font color=&quot;#ff3333&quot;&gt;&lt;b&gt;Exams&lt;/b&gt;&lt;/font&gt;" style="shape=ext;margin=3;double=1;whiteSpace=wrap;html=1;align=center;fontFamily=Helvetica;fontSize=11;labelBackgroundColor=default;fillColor=none;strokeColor=default;" vertex="1" parent="1">
          <mxGeometry x="-1199.25" y="414.25" width="100" height="40" as="geometry" />
        </mxCell>
        <mxCell id="T6x4TMaedT_7HnLKrfu--323" value="&lt;b&gt;&lt;font color=&quot;#3399ff&quot;&gt;uses&lt;/font&gt;&lt;/b&gt;" style="shape=rhombus;perimeter=rhombusPerimeter;whiteSpace=wrap;html=1;align=center;fontFamily=Helvetica;fontSize=11;fontColor=default;labelBackgroundColor=default;" vertex="1" parent="1">
          <mxGeometry x="-1063.25" y="403.75" width="70" height="60" as="geometry" />
        </mxCell>
        <mxCell id="T6x4TMaedT_7HnLKrfu--334" value="&lt;b style=&quot;font-size: 12px; border-color: var(--border-color); color: rgb(255, 51, 51);&quot;&gt;Prescriptions&lt;/b&gt;" style="shape=ext;margin=3;double=1;whiteSpace=wrap;html=1;align=center;fontFamily=Helvetica;fontSize=11;labelBackgroundColor=default;fillColor=none;strokeColor=default;" vertex="1" parent="1">
          <mxGeometry x="-1486.63" y="55.25" width="100" height="40" as="geometry" />
        </mxCell>
        <mxCell id="T6x4TMaedT_7HnLKrfu--342" value="&lt;b style=&quot;border-color: var(--border-color); color: rgb(255, 51, 51);&quot;&gt;Clinics&lt;/b&gt;" style="whiteSpace=wrap;html=1;align=center;fillColor=none;strokeColor=default;" vertex="1" parent="1">
          <mxGeometry x="-1394.25" y="419.25" width="70" height="30" as="geometry" />
        </mxCell>
        <mxCell id="T6x4TMaedT_7HnLKrfu--453" style="edgeStyle=none;rounded=0;orthogonalLoop=1;jettySize=auto;html=1;strokeColor=default;align=center;verticalAlign=middle;fontFamily=Helvetica;fontSize=11;fontColor=default;labelBackgroundColor=default;endArrow=none;endFill=0;" edge="1" parent="1" source="T6x4TMaedT_7HnLKrfu--353" target="T6x4TMaedT_7HnLKrfu--452">
          <mxGeometry relative="1" as="geometry" />
        </mxCell>
        <mxCell id="T6x4TMaedT_7HnLKrfu--353" value="&lt;b style=&quot;font-size: 12px; border-color: var(--border-color); color: rgb(255, 51, 51);&quot;&gt;Appointments&lt;/b&gt;" style="shape=ext;margin=3;double=1;whiteSpace=wrap;html=1;align=center;fontFamily=Helvetica;fontSize=11;labelBackgroundColor=default;fillColor=none;strokeColor=default;" vertex="1" parent="1">
          <mxGeometry x="-1486.63" y="180.25" width="100" height="40" as="geometry" />
        </mxCell>
        <mxCell id="T6x4TMaedT_7HnLKrfu--356" style="edgeStyle=none;rounded=0;orthogonalLoop=1;jettySize=auto;html=1;strokeColor=default;align=center;verticalAlign=middle;fontFamily=Helvetica;fontSize=11;fontColor=default;labelBackgroundColor=default;endArrow=none;endFill=0;shape=link;" edge="1" source="T6x4TMaedT_7HnLKrfu--353" target="T6x4TMaedT_7HnLKrfu--358" parent="1">
          <mxGeometry relative="1" as="geometry">
            <mxPoint x="-1264.19" y="373.25" as="sourcePoint" />
            <mxPoint x="-1264.3683274875389" y="329.18354255122745" as="targetPoint" />
          </mxGeometry>
        </mxCell>
        <mxCell id="T6x4TMaedT_7HnLKrfu--357" style="edgeStyle=none;rounded=0;orthogonalLoop=1;jettySize=auto;html=1;strokeColor=default;align=center;verticalAlign=middle;fontFamily=Helvetica;fontSize=11;fontColor=default;labelBackgroundColor=default;endArrow=block;endFill=1;" edge="1" source="T6x4TMaedT_7HnLKrfu--358" target="T6x4TMaedT_7HnLKrfu--293" parent="1">
          <mxGeometry relative="1" as="geometry">
            <mxPoint x="-1262.1899999999991" y="145.24" as="sourcePoint" />
            <mxPoint x="-1262.19" y="92.24000000000001" as="targetPoint" />
          </mxGeometry>
        </mxCell>
        <mxCell id="T6x4TMaedT_7HnLKrfu--358" value="&lt;b style=&quot;color: rgb(0, 0, 0); font-size: 12px;&quot;&gt;&lt;font color=&quot;#3399ff&quot;&gt;with&lt;/font&gt;&lt;/b&gt;" style="shape=rhombus;double=1;perimeter=rhombusPerimeter;whiteSpace=wrap;html=1;align=center;fontColor=#FF3333;fontFamily=Helvetica;fontSize=11;labelBackgroundColor=default;" vertex="1" parent="1">
          <mxGeometry x="-1333.63" y="169.5" width="74" height="60" as="geometry" />
        </mxCell>
        <mxCell id="T6x4TMaedT_7HnLKrfu--359" style="edgeStyle=none;rounded=0;orthogonalLoop=1;jettySize=auto;html=1;strokeColor=default;align=center;verticalAlign=middle;fontFamily=Helvetica;fontSize=11;fontColor=default;labelBackgroundColor=default;endArrow=none;endFill=0;shape=link;" edge="1" source="T6x4TMaedT_7HnLKrfu--353" target="T6x4TMaedT_7HnLKrfu--360" parent="1">
          <mxGeometry relative="1" as="geometry">
            <mxPoint x="-1337.42" y="360.25" as="sourcePoint" />
            <mxPoint x="-1353.1583274875388" y="299.18354255122745" as="targetPoint" />
          </mxGeometry>
        </mxCell>
        <mxCell id="T6x4TMaedT_7HnLKrfu--360" value="&lt;b style=&quot;color: rgb(0, 0, 0); font-size: 12px;&quot;&gt;&lt;font color=&quot;#3399ff&quot;&gt;with&lt;/font&gt;&lt;/b&gt;" style="shape=rhombus;double=1;perimeter=rhombusPerimeter;whiteSpace=wrap;html=1;align=center;fontColor=#FF3333;fontFamily=Helvetica;fontSize=11;labelBackgroundColor=default;" vertex="1" parent="1">
          <mxGeometry x="-1626.63" y="169.5" width="74" height="60" as="geometry" />
        </mxCell>
        <mxCell id="T6x4TMaedT_7HnLKrfu--361" style="edgeStyle=none;rounded=0;orthogonalLoop=1;jettySize=auto;html=1;strokeColor=default;align=center;verticalAlign=middle;fontFamily=Helvetica;fontSize=11;fontColor=default;labelBackgroundColor=default;endArrow=block;endFill=1;" edge="1" source="T6x4TMaedT_7HnLKrfu--360" target="T6x4TMaedT_7HnLKrfu--308" parent="1">
          <mxGeometry relative="1" as="geometry">
            <mxPoint x="-1178.63" y="204.24" as="sourcePoint" />
            <mxPoint x="-1021.6300000000001" y="42.24000000000001" as="targetPoint" />
          </mxGeometry>
        </mxCell>
        <mxCell id="T6x4TMaedT_7HnLKrfu--362" style="edgeStyle=none;rounded=0;orthogonalLoop=1;jettySize=auto;html=1;strokeColor=default;align=center;verticalAlign=middle;fontFamily=Helvetica;fontSize=11;fontColor=default;labelBackgroundColor=default;endArrow=none;endFill=0;shape=link;" edge="1" source="T6x4TMaedT_7HnLKrfu--334" target="T6x4TMaedT_7HnLKrfu--363" parent="1">
          <mxGeometry relative="1" as="geometry">
            <mxPoint x="-1490.63" y="138" as="sourcePoint" />
            <mxPoint x="-1681.8325596849627" y="446.53534826482905" as="targetPoint" />
          </mxGeometry>
        </mxCell>
        <mxCell id="T6x4TMaedT_7HnLKrfu--363" value="&lt;b style=&quot;color: rgb(51, 153, 255); font-size: 12px;&quot;&gt;receiver&lt;/b&gt;" style="shape=rhombus;double=1;perimeter=rhombusPerimeter;whiteSpace=wrap;html=1;align=center;fontColor=#FF3333;fontFamily=Helvetica;fontSize=11;labelBackgroundColor=default;" vertex="1" parent="1">
          <mxGeometry x="-1334.63" y="45.25" width="76" height="60" as="geometry" />
        </mxCell>
        <mxCell id="T6x4TMaedT_7HnLKrfu--364" style="edgeStyle=none;rounded=0;orthogonalLoop=1;jettySize=auto;html=1;strokeColor=default;align=center;verticalAlign=middle;fontFamily=Helvetica;fontSize=11;fontColor=default;labelBackgroundColor=default;endArrow=block;endFill=1;" edge="1" source="T6x4TMaedT_7HnLKrfu--363" target="T6x4TMaedT_7HnLKrfu--293" parent="1">
          <mxGeometry relative="1" as="geometry">
            <mxPoint x="-1619.6021911774378" y="482.89636710275477" as="sourcePoint" />
            <mxPoint x="-1631.63" y="119" as="targetPoint" />
          </mxGeometry>
        </mxCell>
        <mxCell id="T6x4TMaedT_7HnLKrfu--365" style="edgeStyle=none;rounded=0;orthogonalLoop=1;jettySize=auto;html=1;strokeColor=default;align=center;verticalAlign=middle;fontFamily=Helvetica;fontSize=11;fontColor=default;labelBackgroundColor=default;endArrow=none;endFill=0;shape=link;" edge="1" source="T6x4TMaedT_7HnLKrfu--334" target="T6x4TMaedT_7HnLKrfu--366" parent="1">
          <mxGeometry relative="1" as="geometry">
            <mxPoint x="-1368.63" y="132" as="sourcePoint" />
            <mxPoint x="-1676.8325596849627" y="521.535348264829" as="targetPoint" />
          </mxGeometry>
        </mxCell>
        <mxCell id="T6x4TMaedT_7HnLKrfu--366" value="&lt;b style=&quot;color: rgb(51, 153, 255); font-size: 12px;&quot;&gt;prescriber&lt;/b&gt;" style="shape=rhombus;double=1;perimeter=rhombusPerimeter;whiteSpace=wrap;html=1;align=center;fontColor=#FF3333;fontFamily=Helvetica;fontSize=11;labelBackgroundColor=default;" vertex="1" parent="1">
          <mxGeometry x="-1636.13" y="45.25" width="93" height="60" as="geometry" />
        </mxCell>
        <mxCell id="T6x4TMaedT_7HnLKrfu--367" style="edgeStyle=none;rounded=0;orthogonalLoop=1;jettySize=auto;html=1;strokeColor=default;align=center;verticalAlign=middle;fontFamily=Helvetica;fontSize=11;fontColor=default;labelBackgroundColor=default;endArrow=block;endFill=1;" edge="1" source="T6x4TMaedT_7HnLKrfu--366" target="T6x4TMaedT_7HnLKrfu--308" parent="1">
          <mxGeometry relative="1" as="geometry">
            <mxPoint x="-1614.6021911774378" y="557.8963671027548" as="sourcePoint" />
            <mxPoint x="-1257.63" y="120" as="targetPoint" />
          </mxGeometry>
        </mxCell>
        <mxCell id="T6x4TMaedT_7HnLKrfu--368" style="edgeStyle=none;rounded=0;orthogonalLoop=1;jettySize=auto;html=1;strokeColor=default;align=center;verticalAlign=middle;fontFamily=Helvetica;fontSize=11;fontColor=default;labelBackgroundColor=default;endArrow=block;endFill=1;" edge="1" source="T6x4TMaedT_7HnLKrfu--370" target="T6x4TMaedT_7HnLKrfu--293" parent="1">
          <mxGeometry relative="1" as="geometry" />
        </mxCell>
        <mxCell id="T6x4TMaedT_7HnLKrfu--369" style="edgeStyle=none;rounded=0;orthogonalLoop=1;jettySize=auto;html=1;strokeColor=default;align=center;verticalAlign=middle;fontFamily=Helvetica;fontSize=11;fontColor=default;labelBackgroundColor=default;endArrow=none;endFill=0;shape=link;" edge="1" source="T6x4TMaedT_7HnLKrfu--370" target="T6x4TMaedT_7HnLKrfu--316" parent="1">
          <mxGeometry relative="1" as="geometry" />
        </mxCell>
        <mxCell id="T6x4TMaedT_7HnLKrfu--370" value="&lt;b style=&quot;border-color: var(--border-color); color: rgb(0, 0, 0);&quot;&gt;&lt;font style=&quot;border-color: var(--border-color);&quot; color=&quot;#3399ff&quot;&gt;takes&lt;/font&gt;&lt;/b&gt;" style="shape=rhombus;double=1;perimeter=rhombusPerimeter;whiteSpace=wrap;html=1;align=center;fontColor=#FF3333;fontFamily=Helvetica;fontSize=11;labelBackgroundColor=default;" vertex="1" parent="1">
          <mxGeometry x="-1188.38" y="225" width="79" height="60" as="geometry" />
        </mxCell>
        <mxCell id="T6x4TMaedT_7HnLKrfu--371" style="rounded=0;orthogonalLoop=1;jettySize=auto;html=1;endArrow=none;endFill=0;shape=link;" edge="1" source="T6x4TMaedT_7HnLKrfu--353" target="T6x4TMaedT_7HnLKrfu--374" parent="1">
          <mxGeometry relative="1" as="geometry">
            <mxPoint x="-1447.88" y="113.24000000000001" as="sourcePoint" />
          </mxGeometry>
        </mxCell>
        <mxCell id="T6x4TMaedT_7HnLKrfu--372" style="edgeStyle=none;rounded=0;orthogonalLoop=1;jettySize=auto;html=1;strokeColor=default;align=center;verticalAlign=middle;fontFamily=Helvetica;fontSize=11;fontColor=default;labelBackgroundColor=default;endArrow=none;endFill=0;" edge="1" source="T6x4TMaedT_7HnLKrfu--374" target="T6x4TMaedT_7HnLKrfu--375" parent="1">
          <mxGeometry relative="1" as="geometry" />
        </mxCell>
        <mxCell id="T6x4TMaedT_7HnLKrfu--373" style="edgeStyle=none;rounded=0;orthogonalLoop=1;jettySize=auto;html=1;strokeColor=default;align=center;verticalAlign=middle;fontFamily=Helvetica;fontSize=11;fontColor=default;labelBackgroundColor=default;endArrow=none;endFill=0;" edge="1" source="T6x4TMaedT_7HnLKrfu--374" target="T6x4TMaedT_7HnLKrfu--376" parent="1">
          <mxGeometry relative="1" as="geometry" />
        </mxCell>
        <mxCell id="T6x4TMaedT_7HnLKrfu--374" value="ISA&lt;br style=&quot;font-size: 19px;&quot;&gt;" style="triangle;rotation=0;html=1;labelBorderColor=none;fontStyle=1;spacingLeft=0;direction=south;fontSize=19;spacingTop=-10;fillColor=#d5e8d4;strokeColor=#82b366;fontFamily=Helvetica;fontColor=default;labelBackgroundColor=none;textShadow=0;" vertex="1" parent="1">
          <mxGeometry x="-1475.38" y="244" width="77.5" height="60" as="geometry" />
        </mxCell>
        <mxCell id="T6x4TMaedT_7HnLKrfu--375" value="&lt;b style=&quot;border-color: var(--border-color); color: rgb(255, 51, 51);&quot;&gt;Online&lt;/b&gt;" style="whiteSpace=wrap;html=1;align=center;fillColor=none;strokeColor=default;" vertex="1" parent="1">
          <mxGeometry x="-1550.63" y="259" width="70" height="30" as="geometry" />
        </mxCell>
        <mxCell id="T6x4TMaedT_7HnLKrfu--376" value="&lt;b style=&quot;border-color: var(--border-color); color: rgb(255, 51, 51);&quot;&gt;Presential&lt;/b&gt;" style="whiteSpace=wrap;html=1;align=center;fillColor=none;strokeColor=default;" vertex="1" parent="1">
          <mxGeometry x="-1393.63" y="259" width="70" height="30" as="geometry" />
        </mxCell>
        <mxCell id="T6x4TMaedT_7HnLKrfu--378" style="edgeStyle=none;rounded=0;orthogonalLoop=1;jettySize=auto;html=1;strokeColor=default;align=center;verticalAlign=middle;fontFamily=Helvetica;fontSize=11;fontColor=default;labelBackgroundColor=default;endArrow=none;endFill=0;shape=link;" edge="1" source="T6x4TMaedT_7HnLKrfu--316" target="T6x4TMaedT_7HnLKrfu--380" parent="1">
          <mxGeometry relative="1" as="geometry">
            <mxPoint x="-1627.25" y="438.25" as="sourcePoint" />
          </mxGeometry>
        </mxCell>
        <mxCell id="T6x4TMaedT_7HnLKrfu--379" style="edgeStyle=none;rounded=0;orthogonalLoop=1;jettySize=auto;html=1;strokeColor=default;align=center;verticalAlign=middle;fontFamily=Helvetica;fontSize=11;fontColor=default;labelBackgroundColor=default;endArrow=block;endFill=1;" edge="1" source="T6x4TMaedT_7HnLKrfu--380" target="T6x4TMaedT_7HnLKrfu--342" parent="1">
          <mxGeometry relative="1" as="geometry">
            <mxPoint x="-1475.25" y="277.25" as="targetPoint" />
          </mxGeometry>
        </mxCell>
        <mxCell id="T6x4TMaedT_7HnLKrfu--380" value="&lt;b style=&quot;font-size: 12px;&quot;&gt;&lt;font color=&quot;#3399ff&quot;&gt;where&lt;/font&gt;&lt;/b&gt;" style="shape=rhombus;perimeter=rhombusPerimeter;whiteSpace=wrap;html=1;align=center;fontFamily=Helvetica;fontSize=11;fontColor=default;labelBackgroundColor=default;" vertex="1" parent="1">
          <mxGeometry x="-1291.25" y="416.25" width="58" height="36" as="geometry" />
        </mxCell>
        <mxCell id="T6x4TMaedT_7HnLKrfu--381" style="edgeStyle=none;rounded=0;orthogonalLoop=1;jettySize=auto;html=1;strokeColor=default;align=center;verticalAlign=middle;fontFamily=Helvetica;fontSize=11;fontColor=default;labelBackgroundColor=default;endArrow=none;endFill=0;shape=link;" edge="1" source="T6x4TMaedT_7HnLKrfu--376" target="T6x4TMaedT_7HnLKrfu--383" parent="1">
          <mxGeometry relative="1" as="geometry">
            <mxPoint x="-1328.63" y="423" as="sourcePoint" />
          </mxGeometry>
        </mxCell>
        <mxCell id="T6x4TMaedT_7HnLKrfu--382" style="edgeStyle=none;rounded=0;orthogonalLoop=1;jettySize=auto;html=1;strokeColor=default;align=center;verticalAlign=middle;fontFamily=Helvetica;fontSize=11;fontColor=default;labelBackgroundColor=default;endArrow=block;endFill=1;" edge="1" source="T6x4TMaedT_7HnLKrfu--383" target="T6x4TMaedT_7HnLKrfu--342" parent="1">
          <mxGeometry relative="1" as="geometry">
            <mxPoint x="-1548.88" y="514.75" as="targetPoint" />
            <mxPoint x="-1339.2154838709675" y="375.49838709677397" as="sourcePoint" />
          </mxGeometry>
        </mxCell>
        <mxCell id="T6x4TMaedT_7HnLKrfu--383" value="&lt;b style=&quot;font-size: 12px;&quot;&gt;&lt;font color=&quot;#3399ff&quot;&gt;where&lt;/font&gt;&lt;/b&gt;" style="shape=rhombus;perimeter=rhombusPerimeter;whiteSpace=wrap;html=1;align=center;fontFamily=Helvetica;fontSize=11;fontColor=default;labelBackgroundColor=default;" vertex="1" parent="1">
          <mxGeometry x="-1386.63" y="337" width="56" height="42" as="geometry" />
        </mxCell>
        <mxCell id="T6x4TMaedT_7HnLKrfu--386" style="edgeStyle=none;rounded=0;orthogonalLoop=1;jettySize=auto;html=1;strokeColor=default;align=center;verticalAlign=middle;fontFamily=Helvetica;fontSize=11;fontColor=default;labelBackgroundColor=default;endArrow=none;endFill=0;shape=link;" edge="1" target="T6x4TMaedT_7HnLKrfu--389" parent="1" source="T6x4TMaedT_7HnLKrfu--334">
          <mxGeometry relative="1" as="geometry">
            <mxPoint x="-2137.63" y="179.25" as="sourcePoint" />
          </mxGeometry>
        </mxCell>
        <mxCell id="T6x4TMaedT_7HnLKrfu--387" value="&lt;b style=&quot;border-color: var(--border-color); color: rgb(255, 51, 51);&quot;&gt;Drugs&lt;/b&gt;" style="whiteSpace=wrap;html=1;align=center;fillColor=none;strokeColor=default;" vertex="1" parent="1">
          <mxGeometry x="-1469.63" y="-72.25" width="66" height="30" as="geometry" />
        </mxCell>
        <mxCell id="T6x4TMaedT_7HnLKrfu--388" style="edgeStyle=none;rounded=0;orthogonalLoop=1;jettySize=auto;html=1;strokeColor=default;align=center;verticalAlign=middle;fontFamily=Helvetica;fontSize=11;fontColor=default;labelBackgroundColor=default;endArrow=none;endFill=0;" edge="1" source="T6x4TMaedT_7HnLKrfu--389" target="T6x4TMaedT_7HnLKrfu--387" parent="1">
          <mxGeometry relative="1" as="geometry" />
        </mxCell>
        <mxCell id="T6x4TMaedT_7HnLKrfu--389" value="&lt;b&gt;&lt;font color=&quot;#3399ff&quot;&gt;prescription_drugs&lt;/font&gt;&lt;/b&gt;" style="shape=rhombus;perimeter=rhombusPerimeter;whiteSpace=wrap;html=1;align=center;fillColor=none;strokeColor=default;" vertex="1" parent="1">
          <mxGeometry x="-1506.63" y="-25.75" width="140" height="60" as="geometry" />
        </mxCell>
        <mxCell id="T6x4TMaedT_7HnLKrfu--390" value="&lt;font color=&quot;#ff3333&quot;&gt;&lt;b&gt;Speciality&lt;/b&gt;&lt;/font&gt;" style="whiteSpace=wrap;html=1;align=center;fillColor=none;strokeColor=default;" vertex="1" parent="1">
          <mxGeometry x="-1767" y="419" width="70" height="30" as="geometry" />
        </mxCell>
        <mxCell id="T6x4TMaedT_7HnLKrfu--391" value="&lt;b&gt;&lt;font color=&quot;#3399ff&quot;&gt;clinic_doctors&lt;/font&gt;&lt;/b&gt;" style="shape=rhombus;perimeter=rhombusPerimeter;whiteSpace=wrap;html=1;align=center;fillColor=none;strokeColor=default;" vertex="1" parent="1">
          <mxGeometry x="-1656.88" y="315.5" width="104.5" height="60" as="geometry" />
        </mxCell>
        <mxCell id="T6x4TMaedT_7HnLKrfu--392" style="edgeStyle=none;rounded=0;orthogonalLoop=1;jettySize=auto;html=1;strokeColor=default;align=center;verticalAlign=middle;fontFamily=Helvetica;fontSize=11;fontColor=default;labelBackgroundColor=default;endArrow=none;endFill=0;" edge="1" target="T6x4TMaedT_7HnLKrfu--391" parent="1" source="T6x4TMaedT_7HnLKrfu--308">
          <mxGeometry relative="1" as="geometry">
            <mxPoint x="-1922.63" y="332.78" as="sourcePoint" />
          </mxGeometry>
        </mxCell>
        <mxCell id="T6x4TMaedT_7HnLKrfu--393" style="edgeStyle=none;rounded=0;orthogonalLoop=1;jettySize=auto;html=1;strokeColor=default;align=center;verticalAlign=middle;fontFamily=Helvetica;fontSize=11;fontColor=default;labelBackgroundColor=default;endArrow=none;endFill=0;" edge="1" source="T6x4TMaedT_7HnLKrfu--391" parent="1" target="T6x4TMaedT_7HnLKrfu--342">
          <mxGeometry relative="1" as="geometry">
            <mxPoint x="-1457.63" y="475.53" as="targetPoint" />
          </mxGeometry>
        </mxCell>
        <mxCell id="T6x4TMaedT_7HnLKrfu--394" value="&lt;b&gt;&lt;font color=&quot;#3399ff&quot;&gt;doctor_specialities&lt;/font&gt;&lt;/b&gt;" style="shape=rhombus;perimeter=rhombusPerimeter;whiteSpace=wrap;html=1;align=center;fillColor=none;strokeColor=default;" vertex="1" parent="1">
          <mxGeometry x="-1801.63" y="236" width="140" height="60" as="geometry" />
        </mxCell>
        <mxCell id="T6x4TMaedT_7HnLKrfu--395" style="edgeStyle=none;rounded=0;orthogonalLoop=1;jettySize=auto;html=1;strokeColor=default;align=center;verticalAlign=middle;fontFamily=Helvetica;fontSize=11;fontColor=default;labelBackgroundColor=default;endArrow=none;endFill=0;" edge="1" target="T6x4TMaedT_7HnLKrfu--394" parent="1" source="T6x4TMaedT_7HnLKrfu--308">
          <mxGeometry relative="1" as="geometry">
            <mxPoint x="-1839.63" y="313.25" as="targetPoint" />
            <mxPoint x="-2325.63" y="306.25" as="sourcePoint" />
          </mxGeometry>
        </mxCell>
        <mxCell id="T6x4TMaedT_7HnLKrfu--396" style="edgeStyle=none;rounded=0;orthogonalLoop=1;jettySize=auto;html=1;strokeColor=default;align=center;verticalAlign=middle;fontFamily=Helvetica;fontSize=11;fontColor=default;labelBackgroundColor=default;endArrow=none;endFill=0;" edge="1" source="T6x4TMaedT_7HnLKrfu--394" parent="1" target="T6x4TMaedT_7HnLKrfu--390">
          <mxGeometry relative="1" as="geometry">
            <mxPoint x="-1860.63" y="276" as="targetPoint" />
          </mxGeometry>
        </mxCell>
        <mxCell id="T6x4TMaedT_7HnLKrfu--397" style="edgeStyle=none;rounded=0;orthogonalLoop=1;jettySize=auto;html=1;strokeColor=default;align=center;verticalAlign=middle;fontFamily=Helvetica;fontSize=11;fontColor=default;labelBackgroundColor=default;endArrow=none;endFill=0;" edge="1" target="T6x4TMaedT_7HnLKrfu--398" parent="1" source="T6x4TMaedT_7HnLKrfu--342">
          <mxGeometry relative="1" as="geometry">
            <mxPoint x="-1587" y="350" as="sourcePoint" />
          </mxGeometry>
        </mxCell>
        <mxCell id="T6x4TMaedT_7HnLKrfu--398" value="&lt;b&gt;&lt;font color=&quot;#3399ff&quot;&gt;clinic_specialities&lt;/font&gt;&lt;/b&gt;" style="shape=rhombus;perimeter=rhombusPerimeter;whiteSpace=wrap;html=1;align=center;fillColor=none;strokeColor=default;" vertex="1" parent="1">
          <mxGeometry x="-1651" y="404" width="122" height="60" as="geometry" />
        </mxCell>
        <mxCell id="T6x4TMaedT_7HnLKrfu--399" style="edgeStyle=none;rounded=0;orthogonalLoop=1;jettySize=auto;html=1;strokeColor=default;align=center;verticalAlign=middle;fontFamily=Helvetica;fontSize=11;fontColor=default;labelBackgroundColor=default;endArrow=none;endFill=0;" edge="1" target="T6x4TMaedT_7HnLKrfu--398" parent="1" source="T6x4TMaedT_7HnLKrfu--390">
          <mxGeometry relative="1" as="geometry">
            <mxPoint x="-1587" y="518" as="sourcePoint" />
          </mxGeometry>
        </mxCell>
        <mxCell id="T6x4TMaedT_7HnLKrfu--410" style="edgeStyle=none;rounded=0;orthogonalLoop=1;jettySize=auto;html=1;strokeColor=default;align=center;verticalAlign=middle;fontFamily=Helvetica;fontSize=11;fontColor=default;labelBackgroundColor=default;endArrow=none;endFill=0;" edge="1" parent="1" source="T6x4TMaedT_7HnLKrfu--402" target="T6x4TMaedT_7HnLKrfu--289">
          <mxGeometry relative="1" as="geometry" />
        </mxCell>
        <mxCell id="T6x4TMaedT_7HnLKrfu--402" value="&lt;font color=&quot;#000000&quot;&gt;name&lt;br&gt;&lt;/font&gt;" style="ellipse;whiteSpace=wrap;html=1;align=center;rounded=1;labelBackgroundColor=none;fontFamily=Helvetica;fontSize=11;fontColor=default;" vertex="1" parent="1">
          <mxGeometry x="-1544.13" y="-236" width="39.5" height="30" as="geometry" />
        </mxCell>
        <mxCell id="T6x4TMaedT_7HnLKrfu--409" style="edgeStyle=none;rounded=0;orthogonalLoop=1;jettySize=auto;html=1;strokeColor=default;align=center;verticalAlign=middle;fontFamily=Helvetica;fontSize=11;fontColor=default;labelBackgroundColor=default;endArrow=none;endFill=0;" edge="1" parent="1" source="T6x4TMaedT_7HnLKrfu--403" target="T6x4TMaedT_7HnLKrfu--289">
          <mxGeometry relative="1" as="geometry" />
        </mxCell>
        <mxCell id="T6x4TMaedT_7HnLKrfu--403" value="&lt;font style=&quot;font-size: 14px;&quot; color=&quot;#000000&quot;&gt;&lt;b&gt;user_id&lt;/b&gt;&lt;/font&gt;" style="ellipse;whiteSpace=wrap;html=1;align=center;rounded=1;labelBackgroundColor=none;fontFamily=Helvetica;fontSize=11;fontColor=default;" vertex="1" parent="1">
          <mxGeometry x="-1588.63" y="-203.75" width="86" height="30" as="geometry" />
        </mxCell>
        <mxCell id="T6x4TMaedT_7HnLKrfu--412" style="edgeStyle=none;rounded=0;orthogonalLoop=1;jettySize=auto;html=1;strokeColor=default;align=center;verticalAlign=middle;fontFamily=Helvetica;fontSize=11;fontColor=default;labelBackgroundColor=default;endArrow=none;endFill=0;" edge="1" parent="1" source="T6x4TMaedT_7HnLKrfu--404" target="T6x4TMaedT_7HnLKrfu--289">
          <mxGeometry relative="1" as="geometry" />
        </mxCell>
        <mxCell id="T6x4TMaedT_7HnLKrfu--404" value="&lt;font color=&quot;#000000&quot;&gt;email&lt;br&gt;&lt;/font&gt;" style="ellipse;whiteSpace=wrap;html=1;align=center;rounded=1;labelBackgroundColor=none;fontFamily=Helvetica;fontSize=11;fontColor=default;" vertex="1" parent="1">
          <mxGeometry x="-1458.8700000000001" y="-282" width="44.5" height="30" as="geometry" />
        </mxCell>
        <mxCell id="T6x4TMaedT_7HnLKrfu--413" style="edgeStyle=none;rounded=0;orthogonalLoop=1;jettySize=auto;html=1;strokeColor=default;align=center;verticalAlign=middle;fontFamily=Helvetica;fontSize=11;fontColor=default;labelBackgroundColor=default;endArrow=none;endFill=0;" edge="1" parent="1" source="T6x4TMaedT_7HnLKrfu--405" target="T6x4TMaedT_7HnLKrfu--289">
          <mxGeometry relative="1" as="geometry" />
        </mxCell>
        <mxCell id="T6x4TMaedT_7HnLKrfu--405" value="&lt;font color=&quot;#000000&quot;&gt;password&lt;br&gt;&lt;/font&gt;" style="ellipse;whiteSpace=wrap;html=1;align=center;rounded=1;labelBackgroundColor=none;fontFamily=Helvetica;fontSize=11;fontColor=default;" vertex="1" parent="1">
          <mxGeometry x="-1415.63" y="-261" width="58" height="30" as="geometry" />
        </mxCell>
        <mxCell id="T6x4TMaedT_7HnLKrfu--415" style="edgeStyle=none;rounded=0;orthogonalLoop=1;jettySize=auto;html=1;strokeColor=default;align=center;verticalAlign=middle;fontFamily=Helvetica;fontSize=11;fontColor=default;labelBackgroundColor=default;endArrow=none;endFill=0;" edge="1" parent="1" source="T6x4TMaedT_7HnLKrfu--406" target="T6x4TMaedT_7HnLKrfu--289">
          <mxGeometry relative="1" as="geometry" />
        </mxCell>
        <mxCell id="T6x4TMaedT_7HnLKrfu--406" value="&lt;font color=&quot;#000000&quot;&gt;register_ts&lt;br&gt;&lt;/font&gt;" style="ellipse;whiteSpace=wrap;html=1;align=center;rounded=1;labelBackgroundColor=none;fontFamily=Helvetica;fontSize=11;fontColor=default;" vertex="1" parent="1">
          <mxGeometry x="-1364.63" y="-203.75" width="68" height="30" as="geometry" />
        </mxCell>
        <mxCell id="T6x4TMaedT_7HnLKrfu--411" style="edgeStyle=none;rounded=0;orthogonalLoop=1;jettySize=auto;html=1;strokeColor=default;align=center;verticalAlign=middle;fontFamily=Helvetica;fontSize=11;fontColor=default;labelBackgroundColor=default;endArrow=none;endFill=0;" edge="1" parent="1" source="T6x4TMaedT_7HnLKrfu--407" target="T6x4TMaedT_7HnLKrfu--289">
          <mxGeometry relative="1" as="geometry" />
        </mxCell>
        <mxCell id="T6x4TMaedT_7HnLKrfu--407" value="&lt;font color=&quot;#000000&quot;&gt;birth_date&lt;br&gt;&lt;/font&gt;" style="ellipse;whiteSpace=wrap;html=1;align=center;rounded=1;labelBackgroundColor=none;fontFamily=Helvetica;fontSize=11;fontColor=default;" vertex="1" parent="1">
          <mxGeometry x="-1517.63" y="-261" width="63" height="30" as="geometry" />
        </mxCell>
        <mxCell id="T6x4TMaedT_7HnLKrfu--414" style="edgeStyle=none;rounded=0;orthogonalLoop=1;jettySize=auto;html=1;strokeColor=default;align=center;verticalAlign=middle;fontFamily=Helvetica;fontSize=11;fontColor=default;labelBackgroundColor=default;endArrow=none;endFill=0;" edge="1" parent="1" source="T6x4TMaedT_7HnLKrfu--408" target="T6x4TMaedT_7HnLKrfu--289">
          <mxGeometry relative="1" as="geometry" />
        </mxCell>
        <mxCell id="T6x4TMaedT_7HnLKrfu--408" value="&lt;font color=&quot;#000000&quot;&gt;phone&lt;/font&gt;" style="ellipse;whiteSpace=wrap;html=1;align=center;rounded=1;labelBackgroundColor=none;fontFamily=Helvetica;fontSize=11;fontColor=default;" vertex="1" parent="1">
          <mxGeometry x="-1368.63" y="-236" width="49" height="30" as="geometry" />
        </mxCell>
        <mxCell id="T6x4TMaedT_7HnLKrfu--416" style="edgeStyle=none;rounded=0;orthogonalLoop=1;jettySize=auto;html=1;strokeColor=default;align=center;verticalAlign=middle;fontFamily=Helvetica;fontSize=11;fontColor=default;labelBackgroundColor=default;endArrow=none;endFill=0;" edge="1" target="T6x4TMaedT_7HnLKrfu--418" parent="1" source="T6x4TMaedT_7HnLKrfu--387">
          <mxGeometry relative="1" as="geometry">
            <mxPoint x="-1531.63" y="-42.25" as="sourcePoint" />
          </mxGeometry>
        </mxCell>
        <mxCell id="T6x4TMaedT_7HnLKrfu--417" style="edgeStyle=none;rounded=0;orthogonalLoop=1;jettySize=auto;html=1;strokeColor=default;align=center;verticalAlign=middle;fontFamily=Helvetica;fontSize=11;fontColor=default;labelBackgroundColor=default;endArrow=none;endFill=0;" edge="1" target="T6x4TMaedT_7HnLKrfu--419" parent="1" source="T6x4TMaedT_7HnLKrfu--387">
          <mxGeometry relative="1" as="geometry">
            <mxPoint x="-1362.63" y="-46.75" as="sourcePoint" />
          </mxGeometry>
        </mxCell>
        <mxCell id="T6x4TMaedT_7HnLKrfu--418" value="&lt;font style=&quot;font-size: 14px;&quot; color=&quot;#000000&quot;&gt;&lt;b&gt;drug_id&lt;/b&gt;&lt;/font&gt;" style="ellipse;whiteSpace=wrap;html=1;align=center;rounded=1;labelBackgroundColor=none;fontFamily=Helvetica;fontSize=11;fontColor=default;" vertex="1" parent="1">
          <mxGeometry x="-1560.13" y="-72.25" width="71.5" height="30" as="geometry" />
        </mxCell>
        <mxCell id="T6x4TMaedT_7HnLKrfu--419" value="&lt;font color=&quot;#000000&quot;&gt;name&lt;br&gt;&lt;/font&gt;" style="ellipse;whiteSpace=wrap;html=1;align=center;rounded=1;labelBackgroundColor=none;fontFamily=Helvetica;fontSize=11;fontColor=default;" vertex="1" parent="1">
          <mxGeometry x="-1384.63" y="-72.25" width="44" height="30" as="geometry" />
        </mxCell>
        <mxCell id="T6x4TMaedT_7HnLKrfu--422" style="edgeStyle=none;rounded=0;orthogonalLoop=1;jettySize=auto;html=1;strokeColor=default;align=center;verticalAlign=middle;fontFamily=Helvetica;fontSize=11;fontColor=default;labelBackgroundColor=default;endArrow=none;endFill=0;" edge="1" parent="1" source="T6x4TMaedT_7HnLKrfu--420" target="T6x4TMaedT_7HnLKrfu--334">
          <mxGeometry relative="1" as="geometry" />
        </mxCell>
        <mxCell id="T6x4TMaedT_7HnLKrfu--420" value="&lt;span style=&quot;border-bottom: 1px dotted&quot;&gt;&lt;font style=&quot;font-size: 16px;&quot;&gt;date&lt;/font&gt;&lt;/span&gt;" style="ellipse;whiteSpace=wrap;html=1;align=center;fontFamily=Helvetica;fontSize=11;fontColor=default;labelBackgroundColor=default;" vertex="1" parent="1">
          <mxGeometry x="-1552.38" y="17" width="56" height="32" as="geometry" />
        </mxCell>
        <mxCell id="T6x4TMaedT_7HnLKrfu--423" style="edgeStyle=none;rounded=0;orthogonalLoop=1;jettySize=auto;html=1;strokeColor=default;align=center;verticalAlign=middle;fontFamily=Helvetica;fontSize=11;fontColor=default;labelBackgroundColor=default;endArrow=none;endFill=0;" edge="1" parent="1" source="T6x4TMaedT_7HnLKrfu--421" target="T6x4TMaedT_7HnLKrfu--334">
          <mxGeometry relative="1" as="geometry" />
        </mxCell>
        <mxCell id="T6x4TMaedT_7HnLKrfu--421" value="&lt;span style=&quot;border-bottom: 1px dotted&quot;&gt;&lt;font style=&quot;font-size: 16px;&quot;&gt;hour&lt;/font&gt;&lt;/span&gt;" style="ellipse;whiteSpace=wrap;html=1;align=center;fontFamily=Helvetica;fontSize=11;fontColor=default;labelBackgroundColor=default;" vertex="1" parent="1">
          <mxGeometry x="-1377.63" y="19.5" width="56" height="32" as="geometry" />
        </mxCell>
        <mxCell id="T6x4TMaedT_7HnLKrfu--427" style="edgeStyle=none;rounded=0;orthogonalLoop=1;jettySize=auto;html=1;strokeColor=default;align=center;verticalAlign=middle;fontFamily=Helvetica;fontSize=11;fontColor=default;labelBackgroundColor=default;endArrow=none;endFill=0;" edge="1" parent="1" source="T6x4TMaedT_7HnLKrfu--424" target="T6x4TMaedT_7HnLKrfu--353">
          <mxGeometry relative="1" as="geometry" />
        </mxCell>
        <mxCell id="T6x4TMaedT_7HnLKrfu--424" value="&lt;span style=&quot;border-bottom: 1px dotted&quot;&gt;&lt;font style=&quot;font-size: 16px;&quot;&gt;hour&lt;/font&gt;&lt;/span&gt;" style="ellipse;whiteSpace=wrap;html=1;align=center;fontFamily=Helvetica;fontSize=11;fontColor=default;labelBackgroundColor=default;" vertex="1" parent="1">
          <mxGeometry x="-1377.63" y="129.5" width="56" height="32" as="geometry" />
        </mxCell>
        <mxCell id="T6x4TMaedT_7HnLKrfu--426" style="edgeStyle=none;rounded=0;orthogonalLoop=1;jettySize=auto;html=1;strokeColor=default;align=center;verticalAlign=middle;fontFamily=Helvetica;fontSize=11;fontColor=default;labelBackgroundColor=default;endArrow=none;endFill=0;" edge="1" parent="1" source="T6x4TMaedT_7HnLKrfu--425" target="T6x4TMaedT_7HnLKrfu--353">
          <mxGeometry relative="1" as="geometry" />
        </mxCell>
        <mxCell id="T6x4TMaedT_7HnLKrfu--425" value="&lt;span style=&quot;border-bottom: 1px dotted&quot;&gt;&lt;font style=&quot;font-size: 16px;&quot;&gt;date&lt;/font&gt;&lt;/span&gt;" style="ellipse;whiteSpace=wrap;html=1;align=center;fontFamily=Helvetica;fontSize=11;fontColor=default;labelBackgroundColor=default;" vertex="1" parent="1">
          <mxGeometry x="-1552.38" y="129.5" width="56" height="32" as="geometry" />
        </mxCell>
        <mxCell id="T6x4TMaedT_7HnLKrfu--428" style="edgeStyle=none;rounded=0;orthogonalLoop=1;jettySize=auto;html=1;strokeColor=default;align=center;verticalAlign=middle;fontFamily=Helvetica;fontSize=11;fontColor=default;labelBackgroundColor=default;endArrow=none;endFill=0;" edge="1" target="T6x4TMaedT_7HnLKrfu--432" parent="1" source="T6x4TMaedT_7HnLKrfu--342">
          <mxGeometry relative="1" as="geometry">
            <mxPoint x="-1401.23" y="547.5" as="sourcePoint" />
          </mxGeometry>
        </mxCell>
        <mxCell id="T6x4TMaedT_7HnLKrfu--429" style="edgeStyle=none;rounded=0;orthogonalLoop=1;jettySize=auto;html=1;strokeColor=default;align=center;verticalAlign=middle;fontFamily=Helvetica;fontSize=11;fontColor=default;labelBackgroundColor=default;endArrow=none;endFill=0;" edge="1" target="T6x4TMaedT_7HnLKrfu--431" parent="1" source="T6x4TMaedT_7HnLKrfu--342">
          <mxGeometry relative="1" as="geometry">
            <mxPoint x="-1378.23" y="547.5" as="sourcePoint" />
          </mxGeometry>
        </mxCell>
        <mxCell id="T6x4TMaedT_7HnLKrfu--430" style="edgeStyle=none;rounded=0;orthogonalLoop=1;jettySize=auto;html=1;strokeColor=default;align=center;verticalAlign=middle;fontFamily=Helvetica;fontSize=11;fontColor=default;labelBackgroundColor=default;endArrow=none;endFill=0;" edge="1" target="T6x4TMaedT_7HnLKrfu--433" parent="1" source="T6x4TMaedT_7HnLKrfu--342">
          <mxGeometry relative="1" as="geometry">
            <mxPoint x="-1378.23" y="566.5" as="sourcePoint" />
          </mxGeometry>
        </mxCell>
        <mxCell id="T6x4TMaedT_7HnLKrfu--431" value="&lt;font color=&quot;#000000&quot;&gt;name&lt;br&gt;&lt;/font&gt;" style="ellipse;whiteSpace=wrap;html=1;align=center;rounded=1;labelBackgroundColor=none;fontFamily=Helvetica;fontSize=11;fontColor=default;" vertex="1" parent="1">
          <mxGeometry x="-1454.25" y="473" width="40" height="22.02" as="geometry" />
        </mxCell>
        <mxCell id="T6x4TMaedT_7HnLKrfu--432" value="&lt;font color=&quot;#000000&quot;&gt;&lt;b&gt;&lt;font style=&quot;font-size: 14px;&quot;&gt;clinic_id&lt;/font&gt;&lt;/b&gt;&lt;br&gt;&lt;/font&gt;" style="ellipse;whiteSpace=wrap;html=1;align=center;rounded=1;labelBackgroundColor=none;fontFamily=Helvetica;fontSize=11;fontColor=default;" vertex="1" parent="1">
          <mxGeometry x="-1496.75" y="443" width="64" height="30" as="geometry" />
        </mxCell>
        <mxCell id="T6x4TMaedT_7HnLKrfu--433" value="&lt;font color=&quot;#000000&quot;&gt;location&lt;br&gt;&lt;/font&gt;" style="ellipse;whiteSpace=wrap;html=1;align=center;rounded=1;labelBackgroundColor=none;fontFamily=Helvetica;fontSize=11;fontColor=default;" vertex="1" parent="1">
          <mxGeometry x="-1359.25" y="484" width="48" height="22" as="geometry" />
        </mxCell>
        <mxCell id="T6x4TMaedT_7HnLKrfu--434" style="edgeStyle=none;rounded=0;orthogonalLoop=1;jettySize=auto;html=1;strokeColor=default;align=center;verticalAlign=middle;fontFamily=Helvetica;fontSize=11;fontColor=default;labelBackgroundColor=default;endArrow=none;endFill=0;" edge="1" source="T6x4TMaedT_7HnLKrfu--435" parent="1" target="T6x4TMaedT_7HnLKrfu--342">
          <mxGeometry relative="1" as="geometry">
            <mxPoint x="-1378.23" y="557.5" as="targetPoint" />
          </mxGeometry>
        </mxCell>
        <mxCell id="T6x4TMaedT_7HnLKrfu--435" value="&lt;font color=&quot;#000000&quot;&gt;phone&lt;br&gt;&lt;/font&gt;" style="ellipse;whiteSpace=wrap;html=1;align=center;rounded=1;labelBackgroundColor=none;fontFamily=Helvetica;fontSize=11;fontColor=default;" vertex="1" parent="1">
          <mxGeometry x="-1407.25" y="482" width="42" height="24" as="geometry" />
        </mxCell>
        <mxCell id="T6x4TMaedT_7HnLKrfu--436" style="edgeStyle=none;rounded=0;orthogonalLoop=1;jettySize=auto;html=1;strokeColor=default;align=center;verticalAlign=middle;fontFamily=Helvetica;fontSize=11;fontColor=default;labelBackgroundColor=default;endArrow=none;endFill=0;" edge="1" source="T6x4TMaedT_7HnLKrfu--437" parent="1" target="T6x4TMaedT_7HnLKrfu--342">
          <mxGeometry relative="1" as="geometry">
            <mxPoint x="-1313.25" y="482" as="targetPoint" />
          </mxGeometry>
        </mxCell>
        <mxCell id="T6x4TMaedT_7HnLKrfu--437" value="&lt;font color=&quot;#000000&quot;&gt;register_ts&lt;br&gt;&lt;/font&gt;" style="ellipse;whiteSpace=wrap;html=1;align=center;rounded=1;labelBackgroundColor=none;fontFamily=Helvetica;fontSize=11;fontColor=default;" vertex="1" parent="1">
          <mxGeometry x="-1336.25" y="458" width="66" height="22" as="geometry" />
        </mxCell>
        <mxCell id="T6x4TMaedT_7HnLKrfu--438" style="edgeStyle=none;rounded=0;orthogonalLoop=1;jettySize=auto;html=1;strokeColor=default;align=center;verticalAlign=middle;fontFamily=Helvetica;fontSize=11;fontColor=default;labelBackgroundColor=default;endArrow=none;endFill=0;" edge="1" source="T6x4TMaedT_7HnLKrfu--439" parent="1" target="T6x4TMaedT_7HnLKrfu--312">
          <mxGeometry relative="1" as="geometry">
            <mxPoint x="-851" y="476.5" as="targetPoint" />
          </mxGeometry>
        </mxCell>
        <mxCell id="T6x4TMaedT_7HnLKrfu--439" value="&lt;font color=&quot;#000000&quot;&gt;&lt;b&gt;&lt;font style=&quot;font-size: 14px;&quot;&gt;equipment_id&lt;/font&gt;&lt;/b&gt;&lt;br&gt;&lt;/font&gt;" style="ellipse;whiteSpace=wrap;html=1;align=center;rounded=1;labelBackgroundColor=none;fontFamily=Helvetica;fontSize=11;fontColor=default;" vertex="1" parent="1">
          <mxGeometry x="-975.2500000000001" y="465.02" width="111" height="30" as="geometry" />
        </mxCell>
        <mxCell id="T6x4TMaedT_7HnLKrfu--440" style="edgeStyle=none;rounded=0;orthogonalLoop=1;jettySize=auto;html=1;strokeColor=default;align=center;verticalAlign=middle;fontFamily=Helvetica;fontSize=11;fontColor=default;labelBackgroundColor=default;endArrow=none;endFill=0;" edge="1" source="T6x4TMaedT_7HnLKrfu--441" parent="1" target="T6x4TMaedT_7HnLKrfu--312">
          <mxGeometry relative="1" as="geometry">
            <mxPoint x="-821" y="476.5" as="targetPoint" />
          </mxGeometry>
        </mxCell>
        <mxCell id="T6x4TMaedT_7HnLKrfu--441" value="&lt;font color=&quot;#000000&quot;&gt;name&lt;br&gt;&lt;/font&gt;" style="ellipse;whiteSpace=wrap;html=1;align=center;rounded=1;labelBackgroundColor=none;fontFamily=Helvetica;fontSize=11;fontColor=default;" vertex="1" parent="1">
          <mxGeometry x="-946.2500000000001" y="379" width="53" height="30" as="geometry" />
        </mxCell>
        <mxCell id="T6x4TMaedT_7HnLKrfu--442" style="edgeStyle=none;rounded=0;orthogonalLoop=1;jettySize=auto;html=1;strokeColor=default;align=center;verticalAlign=middle;fontFamily=Helvetica;fontSize=11;fontColor=default;labelBackgroundColor=default;endArrow=none;endFill=0;" edge="1" source="T6x4TMaedT_7HnLKrfu--443" parent="1" target="T6x4TMaedT_7HnLKrfu--316">
          <mxGeometry relative="1" as="geometry">
            <mxPoint x="-1124.25" y="536.5" as="targetPoint" />
          </mxGeometry>
        </mxCell>
        <mxCell id="T6x4TMaedT_7HnLKrfu--443" value="&lt;span style=&quot;border-bottom: 1px dotted&quot;&gt;&lt;font style=&quot;font-size: 16px;&quot;&gt;date&lt;/font&gt;&lt;/span&gt;" style="ellipse;whiteSpace=wrap;html=1;align=center;fontFamily=Helvetica;fontSize=11;fontColor=default;labelBackgroundColor=default;" vertex="1" parent="1">
          <mxGeometry x="-1255.25" y="456.5" width="56" height="27.5" as="geometry" />
        </mxCell>
        <mxCell id="T6x4TMaedT_7HnLKrfu--444" value="&lt;font color=&quot;#000000&quot;&gt;description&lt;br&gt;&lt;/font&gt;" style="ellipse;whiteSpace=wrap;html=1;align=center;rounded=1;labelBackgroundColor=none;fontFamily=Helvetica;fontSize=11;fontColor=default;" vertex="1" parent="1">
          <mxGeometry x="-1153.25" y="480" width="74.5" height="25.5" as="geometry" />
        </mxCell>
        <mxCell id="T6x4TMaedT_7HnLKrfu--445" style="edgeStyle=none;rounded=0;orthogonalLoop=1;jettySize=auto;html=1;strokeColor=default;align=center;verticalAlign=middle;fontFamily=Helvetica;fontSize=11;fontColor=default;labelBackgroundColor=default;endArrow=none;endFill=0;" edge="1" source="T6x4TMaedT_7HnLKrfu--444" parent="1" target="T6x4TMaedT_7HnLKrfu--316">
          <mxGeometry relative="1" as="geometry">
            <mxPoint x="-906.75" y="552.5" as="targetPoint" />
          </mxGeometry>
        </mxCell>
        <mxCell id="T6x4TMaedT_7HnLKrfu--446" style="edgeStyle=none;rounded=0;orthogonalLoop=1;jettySize=auto;html=1;strokeColor=default;align=center;verticalAlign=middle;fontFamily=Helvetica;fontSize=11;fontColor=default;labelBackgroundColor=default;endArrow=none;endFill=0;" edge="1" source="T6x4TMaedT_7HnLKrfu--447" parent="1" target="T6x4TMaedT_7HnLKrfu--316">
          <mxGeometry relative="1" as="geometry">
            <mxPoint x="-1093.25" y="536.5" as="targetPoint" />
          </mxGeometry>
        </mxCell>
        <mxCell id="T6x4TMaedT_7HnLKrfu--447" value="&lt;span style=&quot;border-bottom: 1px dotted&quot;&gt;&lt;font style=&quot;font-size: 16px;&quot;&gt;hour&lt;/font&gt;&lt;/span&gt;" style="ellipse;whiteSpace=wrap;html=1;align=center;fontFamily=Helvetica;fontSize=11;fontColor=default;labelBackgroundColor=default;" vertex="1" parent="1">
          <mxGeometry x="-1214.25" y="479" width="56" height="27.5" as="geometry" />
        </mxCell>
        <mxCell id="T6x4TMaedT_7HnLKrfu--448" value="&lt;font color=&quot;#000000&quot;&gt;result&lt;br&gt;&lt;/font&gt;" style="ellipse;whiteSpace=wrap;html=1;align=center;rounded=1;labelBackgroundColor=none;fontFamily=Helvetica;fontSize=11;fontColor=default;" vertex="1" parent="1">
          <mxGeometry x="-1102.25" y="457.5" width="50.5" height="24.5" as="geometry" />
        </mxCell>
        <mxCell id="T6x4TMaedT_7HnLKrfu--449" style="edgeStyle=none;rounded=0;orthogonalLoop=1;jettySize=auto;html=1;strokeColor=default;align=center;verticalAlign=middle;fontFamily=Helvetica;fontSize=11;fontColor=default;labelBackgroundColor=default;endArrow=none;endFill=0;" edge="1" source="T6x4TMaedT_7HnLKrfu--448" parent="1" target="T6x4TMaedT_7HnLKrfu--316">
          <mxGeometry relative="1" as="geometry">
            <mxPoint x="-1113.25" y="494.5" as="targetPoint" />
          </mxGeometry>
        </mxCell>
        <mxCell id="T6x4TMaedT_7HnLKrfu--452" value="&lt;font color=&quot;#000000&quot;&gt;duration&lt;/font&gt;" style="ellipse;whiteSpace=wrap;html=1;align=center;rounded=1;labelBackgroundColor=none;fontFamily=Helvetica;fontSize=11;fontColor=default;" vertex="1" parent="1">
          <mxGeometry x="-1462.25" y="127" width="51.25" height="30" as="geometry" />
        </mxCell>
        <mxCell id="T6x4TMaedT_7HnLKrfu--568" style="edgeStyle=none;rounded=0;orthogonalLoop=1;jettySize=auto;html=1;strokeColor=default;align=center;verticalAlign=middle;fontFamily=Helvetica;fontSize=11;fontColor=default;labelBackgroundColor=default;endArrow=none;endFill=0;" edge="1" source="T6x4TMaedT_7HnLKrfu--569" parent="1" target="T6x4TMaedT_7HnLKrfu--390">
          <mxGeometry relative="1" as="geometry">
            <mxPoint x="-1742" y="410.25" as="targetPoint" />
          </mxGeometry>
        </mxCell>
        <mxCell id="T6x4TMaedT_7HnLKrfu--569" value="&lt;font color=&quot;#000000&quot;&gt;name&lt;br&gt;&lt;/font&gt;" style="ellipse;whiteSpace=wrap;html=1;align=center;rounded=1;labelBackgroundColor=none;fontFamily=Helvetica;fontSize=11;fontColor=default;" vertex="1" parent="1">
          <mxGeometry x="-1710" y="459.75" width="48" height="33.5" as="geometry" />
        </mxCell>
        <mxCell id="T6x4TMaedT_7HnLKrfu--570" style="edgeStyle=none;rounded=0;orthogonalLoop=1;jettySize=auto;html=1;strokeColor=default;align=center;verticalAlign=middle;fontFamily=Helvetica;fontSize=11;fontColor=default;labelBackgroundColor=default;endArrow=none;endFill=0;" edge="1" source="T6x4TMaedT_7HnLKrfu--571" parent="1" target="T6x4TMaedT_7HnLKrfu--390">
          <mxGeometry relative="1" as="geometry">
            <mxPoint x="-1768" y="537.25" as="targetPoint" />
          </mxGeometry>
        </mxCell>
        <mxCell id="T6x4TMaedT_7HnLKrfu--571" value="&lt;font color=&quot;#000000&quot;&gt;&lt;b&gt;&lt;font style=&quot;font-size: 14px;&quot;&gt;speciality_id&lt;/font&gt;&lt;/b&gt;&lt;br&gt;&lt;/font&gt;" style="ellipse;whiteSpace=wrap;html=1;align=center;rounded=1;labelBackgroundColor=none;fontFamily=Helvetica;fontSize=11;fontColor=default;" vertex="1" parent="1">
          <mxGeometry x="-1835" y="461.25" width="101" height="30" as="geometry" />
        </mxCell>
        <mxCell id="T6x4TMaedT_7HnLKrfu--572" value="&lt;b style=&quot;&quot;&gt;&lt;font style=&quot;font-size: 65px;&quot;&gt;New ER&lt;/font&gt;&lt;/b&gt;" style="text;html=1;strokeColor=none;fillColor=none;align=center;verticalAlign=middle;whiteSpace=wrap;rounded=0;" vertex="1" parent="1">
          <mxGeometry x="-1633.25" y="-452" width="376" height="80" as="geometry" />
        </mxCell>
        <mxCell id="T6x4TMaedT_7HnLKrfu--715" value="Disjoint" style="text;html=1;align=center;verticalAlign=middle;resizable=0;points=[];autosize=1;strokeColor=none;fillColor=none;fontFamily=Helvetica;fontSize=11;fontColor=default;labelBackgroundColor=default;" vertex="1" parent="1">
          <mxGeometry x="-1463.63" y="299.25" width="54" height="25" as="geometry" />
        </mxCell>
        <mxCell id="54rXU-yoeSsOBFBmQ2Yl-115" value="&lt;b style=&quot;border-color: var(--border-color);&quot;&gt;exams&lt;/b&gt;" style="whiteSpace=wrap;html=1;align=center;container=0;shadow=0;labelBorderColor=none;fillColor=none;strokeColor=default;" parent="1" vertex="1">
          <mxGeometry x="-3645" y="351.85" width="167" height="59.15" as="geometry" />
        </mxCell>
        <mxCell id="54rXU-yoeSsOBFBmQ2Yl-116" value="(&lt;b style=&quot;border-color: var(--border-color); font-size: 11px;&quot;&gt;patient_id, date, hour,&amp;nbsp;&lt;/b&gt;&lt;span style=&quot;border-color: var(--border-color); font-size: 11px;&quot;&gt;description, result, &lt;b&gt;&lt;font color=&quot;#3399ff&quot;&gt;clinic_id&lt;/font&gt;&lt;/b&gt;, &lt;b&gt;&lt;font color=&quot;#3399ff&quot;&gt;equipment_id&lt;/font&gt;&lt;/b&gt;&lt;/span&gt;&lt;span style=&quot;font-size: 11px;&quot;&gt;)&lt;/span&gt;" style="whiteSpace=wrap;html=1;align=left;container=0;spacingLeft=5;shadow=0;labelBorderColor=none;" parent="1" vertex="1">
          <mxGeometry x="-3457" y="351.8699999999999" width="534" height="59.15" as="geometry" />
        </mxCell>
        <mxCell id="54rXU-yoeSsOBFBmQ2Yl-117" value="&lt;b style=&quot;text-align: left; border-color: var(--border-color); font-size: 11px;&quot;&gt;(patient_id, date, hour)&lt;/b&gt;" style="whiteSpace=wrap;html=1;align=center;container=0;shadow=0;labelBorderColor=none;" parent="1" vertex="1">
          <mxGeometry x="-2902.75" y="351.8764957264955" width="141" height="59.153846153846146" as="geometry" />
        </mxCell>
        <mxCell id="54rXU-yoeSsOBFBmQ2Yl-118" value="&lt;div style=&quot;&quot;&gt;&lt;div&gt;&lt;ul style=&quot;line-height: 18px;&quot;&gt;&lt;li&gt;&lt;b style=&quot;background-color: initial; border-color: var(--border-color);&quot;&gt;&lt;font style=&quot;border-color: var(--border-color);&quot; color=&quot;#3399ff&quot;&gt;patient_id&amp;nbsp;&lt;/font&gt;&lt;/b&gt;&lt;span style=&quot;background-color: initial;&quot;&gt;references&amp;nbsp;&lt;b&gt;patients&lt;/b&gt;&lt;/span&gt;&lt;/li&gt;&lt;li style=&quot;border-color: var(--border-color);&quot;&gt;&lt;b style=&quot;border-color: var(--border-color); background-color: initial;&quot;&gt;&lt;font style=&quot;border-color: var(--border-color);&quot; color=&quot;#3399ff&quot;&gt;equipment_id&amp;nbsp;&lt;/font&gt;&lt;/b&gt;references&amp;nbsp;&lt;b&gt;equipments&lt;/b&gt;&lt;/li&gt;&lt;li&gt;&lt;b style=&quot;background-color: initial; border-color: var(--border-color);&quot;&gt;&lt;font style=&quot;border-color: var(--border-color);&quot; color=&quot;#3399ff&quot;&gt;clinic_id&amp;nbsp;&lt;/font&gt;&lt;/b&gt;&lt;span style=&quot;background-color: initial;&quot;&gt;references&amp;nbsp;&lt;b&gt;clinics&lt;/b&gt;&lt;/span&gt;&lt;/li&gt;&lt;/ul&gt;&lt;/div&gt;&lt;/div&gt;" style="whiteSpace=wrap;html=1;align=left;container=0;glass=0;shadow=0;labelBorderColor=none;" parent="1" vertex="1">
          <mxGeometry x="-2741.5" y="351.87" width="295.5" height="59.15" as="geometry" />
        </mxCell>
        <mxCell id="54rXU-yoeSsOBFBmQ2Yl-119" value="&lt;div style=&quot;text-align: center;&quot;&gt;&lt;div&gt;&lt;font color=&quot;#3399ff&quot;&gt;&lt;b&gt;&lt;br&gt;&lt;/b&gt;&lt;/font&gt;&lt;/div&gt;&lt;/div&gt;" style="whiteSpace=wrap;html=1;align=left;container=0;glass=0;shadow=0;labelBorderColor=none;" parent="1" vertex="1">
          <mxGeometry x="-2425" y="351.87" width="244" height="59.15" as="geometry" />
        </mxCell>
        <mxCell id="54rXU-yoeSsOBFBmQ2Yl-120" value="&lt;b style=&quot;border-color: var(--border-color);&quot;&gt;online_appointments&lt;/b&gt;" style="whiteSpace=wrap;html=1;align=center;container=0;shadow=0;labelBorderColor=none;fillColor=none;strokeColor=default;" parent="1" vertex="1">
          <mxGeometry x="-3645" y="115.26" width="167" height="59.15" as="geometry" />
        </mxCell>
        <mxCell id="54rXU-yoeSsOBFBmQ2Yl-121" value="(&lt;b style=&quot;border-color: var(--border-color); font-size: 11px;&quot;&gt;patient_id, doctor_id, date, hour&lt;/b&gt;&lt;span style=&quot;border-color: var(--border-color); font-size: 11px;&quot;&gt;, duration&lt;/span&gt;&lt;span style=&quot;font-size: 11px;&quot;&gt;)&lt;/span&gt;" style="whiteSpace=wrap;html=1;align=left;container=0;spacingLeft=5;shadow=0;labelBorderColor=none;" parent="1" vertex="1">
          <mxGeometry x="-3457.5" y="115.25999999999995" width="534" height="59.15" as="geometry" />
        </mxCell>
        <mxCell id="54rXU-yoeSsOBFBmQ2Yl-122" value="&lt;span style=&quot;text-align: left;&quot;&gt;(&lt;/span&gt;&lt;b style=&quot;text-align: left; border-color: var(--border-color); font-size: 11px;&quot;&gt;patient_id, doctor_id, date, hour&lt;/b&gt;&lt;span style=&quot;text-align: left; font-size: 11px;&quot;&gt;)&lt;/span&gt;" style="whiteSpace=wrap;html=1;align=center;container=0;shadow=0;labelBorderColor=none;" parent="1" vertex="1">
          <mxGeometry x="-2903.5" y="115.26" width="142.5" height="59.15" as="geometry" />
        </mxCell>
        <mxCell id="54rXU-yoeSsOBFBmQ2Yl-123" value="&lt;div style=&quot;&quot;&gt;&lt;ul style=&quot;line-height: 18px;&quot;&gt;&lt;li&gt;&lt;b style=&quot;background-color: initial; border-color: var(--border-color);&quot;&gt;&lt;font style=&quot;border-color: var(--border-color);&quot; color=&quot;#3399ff&quot;&gt;patient_id&amp;nbsp;&lt;/font&gt;&lt;/b&gt;&lt;span style=&quot;background-color: initial;&quot;&gt;references&amp;nbsp;&lt;b&gt;patients&lt;/b&gt;&lt;/span&gt;&lt;/li&gt;&lt;li style=&quot;border-color: var(--border-color);&quot;&gt;&lt;b style=&quot;border-color: var(--border-color); background-color: initial;&quot;&gt;&lt;font style=&quot;border-color: var(--border-color);&quot; color=&quot;#3399ff&quot;&gt;doctor_id&amp;nbsp;&lt;/font&gt;&lt;/b&gt;references&amp;nbsp;&lt;b&gt;doctors&lt;/b&gt;&lt;/li&gt;&lt;/ul&gt;&lt;/div&gt;" style="whiteSpace=wrap;html=1;align=left;container=0;glass=0;shadow=0;labelBorderColor=none;" parent="1" vertex="1">
          <mxGeometry x="-2741.5" y="115.25" width="295.5" height="59.15" as="geometry" />
        </mxCell>
        <mxCell id="54rXU-yoeSsOBFBmQ2Yl-124" value="&lt;div style=&quot;text-align: center;&quot;&gt;&lt;div&gt;&lt;font color=&quot;#3399ff&quot;&gt;&lt;b&gt;&lt;br&gt;&lt;/b&gt;&lt;/font&gt;&lt;/div&gt;&lt;/div&gt;" style="whiteSpace=wrap;html=1;align=left;container=0;glass=0;shadow=0;labelBorderColor=none;" parent="1" vertex="1">
          <mxGeometry x="-2425" y="115.25" width="244" height="59.15" as="geometry" />
        </mxCell>
        <mxCell id="54rXU-yoeSsOBFBmQ2Yl-130" value="" style="rounded=0;whiteSpace=wrap;html=1;fontFamily=Helvetica;fontSize=11;fontColor=default;align=left;fillColor=#454545;container=0;shadow=0;labelBorderColor=none;" parent="1" vertex="1">
          <mxGeometry x="-2762" y="-260.85" width="21" height="1007.85" as="geometry" />
        </mxCell>
        <mxCell id="54rXU-yoeSsOBFBmQ2Yl-131" value="" style="rounded=0;whiteSpace=wrap;html=1;fontFamily=Helvetica;fontSize=11;fontColor=default;align=left;fillColor=#454545;container=0;shadow=0;labelBorderColor=none;" parent="1" vertex="1">
          <mxGeometry x="-2924" y="-260.85" width="21" height="1007.85" as="geometry" />
        </mxCell>
        <mxCell id="54rXU-yoeSsOBFBmQ2Yl-132" value="" style="rounded=0;whiteSpace=wrap;html=1;fontFamily=Helvetica;fontSize=11;fontColor=default;align=left;fillColor=#454545;container=0;shadow=0;labelBorderColor=none;" parent="1" vertex="1">
          <mxGeometry x="-3478" y="-260.85" width="21" height="1007.85" as="geometry" />
        </mxCell>
        <mxCell id="54rXU-yoeSsOBFBmQ2Yl-133" value="&lt;b style=&quot;border-color: var(--border-color);&quot;&gt;Schema&lt;/b&gt;" style="whiteSpace=wrap;html=1;align=center;container=0;shadow=0;labelBorderColor=none;" parent="1" vertex="1">
          <mxGeometry x="-3457" y="-260.85" width="533" height="39.44" as="geometry" />
        </mxCell>
        <mxCell id="54rXU-yoeSsOBFBmQ2Yl-134" value="&lt;b style=&quot;border-color: var(--border-color);&quot;&gt;Table&lt;/b&gt;" style="whiteSpace=wrap;html=1;align=center;container=0;shadow=0;labelBorderColor=none;" parent="1" vertex="1">
          <mxGeometry x="-3645" y="-260.85" width="167" height="39.44" as="geometry" />
        </mxCell>
        <mxCell id="54rXU-yoeSsOBFBmQ2Yl-135" value="&lt;b style=&quot;border-color: var(--border-color);&quot;&gt;PK&lt;/b&gt;" style="whiteSpace=wrap;html=1;align=center;container=0;shadow=0;labelBorderColor=none;" parent="1" vertex="1">
          <mxGeometry x="-2903" y="-260.8499999999999" width="141" height="39.43589743589743" as="geometry" />
        </mxCell>
        <mxCell id="54rXU-yoeSsOBFBmQ2Yl-136" value="&lt;b style=&quot;border-color: var(--border-color);&quot;&gt;&lt;font color=&quot;#3399ff&quot;&gt;FK&lt;/font&gt;&lt;/b&gt;" style="whiteSpace=wrap;html=1;align=center;container=0;shadow=0;labelBorderColor=none;" parent="1" vertex="1">
          <mxGeometry x="-2741" y="-260.85" width="295" height="39.44" as="geometry" />
        </mxCell>
        <mxCell id="54rXU-yoeSsOBFBmQ2Yl-137" value="(&lt;b style=&quot;border-color: var(--border-color); font-size: 11px;&quot;&gt;equipment_id&lt;/b&gt;&lt;span style=&quot;font-size: 11px;&quot;&gt;, name&lt;/span&gt;&lt;span style=&quot;font-size: 11px;&quot;&gt;)&lt;/span&gt;" style="whiteSpace=wrap;html=1;align=left;container=0;spacingLeft=5;shadow=0;labelBorderColor=none;" parent="1" vertex="1">
          <mxGeometry x="-3457.5" y="409" width="533" height="59.15" as="geometry" />
        </mxCell>
        <mxCell id="54rXU-yoeSsOBFBmQ2Yl-138" value="&lt;b style=&quot;border-color: var(--border-color);&quot;&gt;equipments&lt;/b&gt;" style="whiteSpace=wrap;html=1;align=center;container=0;shadow=0;labelBorderColor=none;fillColor=none;strokeColor=default;" parent="1" vertex="1">
          <mxGeometry x="-3645" y="411.03" width="167" height="59.15" as="geometry" />
        </mxCell>
        <mxCell id="54rXU-yoeSsOBFBmQ2Yl-139" value="&lt;b style=&quot;text-align: left; border-color: var(--border-color); font-size: 11px;&quot;&gt;equipment_id&lt;/b&gt;" style="whiteSpace=wrap;html=1;align=center;container=0;shadow=0;labelBorderColor=none;" parent="1" vertex="1">
          <mxGeometry x="-2903" y="410.87632478632474" width="141" height="59.153846153846146" as="geometry" />
        </mxCell>
        <mxCell id="54rXU-yoeSsOBFBmQ2Yl-140" value="&lt;div style=&quot;text-align: center;&quot;&gt;&lt;div&gt;&lt;font color=&quot;#3399ff&quot;&gt;&lt;b&gt;&lt;br&gt;&lt;/b&gt;&lt;/font&gt;&lt;/div&gt;&lt;/div&gt;" style="whiteSpace=wrap;html=1;align=left;container=0;glass=0;shadow=0;labelBorderColor=none;" parent="1" vertex="1">
          <mxGeometry x="-2741" y="410.88" width="295" height="59.15" as="geometry" />
        </mxCell>
        <mxCell id="54rXU-yoeSsOBFBmQ2Yl-141" value="(&lt;b style=&quot;border-color: var(--border-color); font-size: 11px;&quot;&gt;clinic_id,&amp;nbsp;&lt;/b&gt;&lt;span style=&quot;border-color: var(--border-color); font-size: 11px;&quot;&gt;name, phone, location,&amp;nbsp;&lt;/span&gt;&lt;span style=&quot;font-size: 11px;&quot;&gt;register_ts)&lt;/span&gt;" style="whiteSpace=wrap;html=1;align=left;container=0;spacingLeft=5;shadow=0;labelBorderColor=none;" parent="1" vertex="1">
          <mxGeometry x="-3457" y="233.56" width="533" height="59.15" as="geometry" />
        </mxCell>
        <mxCell id="54rXU-yoeSsOBFBmQ2Yl-142" value="&lt;b&gt;clinics&lt;/b&gt;" style="whiteSpace=wrap;html=1;align=center;container=0;shadow=0;labelBorderColor=none;fillColor=none;strokeColor=default;" parent="1" vertex="1">
          <mxGeometry x="-3645" y="233.56" width="167" height="59.15" as="geometry" />
        </mxCell>
        <mxCell id="54rXU-yoeSsOBFBmQ2Yl-143" value="&lt;b style=&quot;text-align: left; border-color: var(--border-color); font-size: 11px;&quot;&gt;clinic_id&lt;/b&gt;" style="whiteSpace=wrap;html=1;align=center;container=0;shadow=0;labelBorderColor=none;" parent="1" vertex="1">
          <mxGeometry x="-2903" y="233.57017094017075" width="141" height="59.153846153846146" as="geometry" />
        </mxCell>
        <mxCell id="54rXU-yoeSsOBFBmQ2Yl-144" value="&lt;b style=&quot;border-color: var(--border-color);&quot;&gt;prescriptions&lt;/b&gt;" style="whiteSpace=wrap;html=1;align=center;container=0;shadow=0;labelBorderColor=none;fillColor=none;strokeColor=default;" parent="1" vertex="1">
          <mxGeometry x="-3645" y="56.11" width="167" height="59.15" as="geometry" />
        </mxCell>
        <mxCell id="54rXU-yoeSsOBFBmQ2Yl-145" value="(&lt;b style=&quot;border-color: var(--border-color); font-size: 11px;&quot;&gt;doctor_id, patient_id, date, hour&lt;/b&gt;&lt;span style=&quot;font-size: 11px;&quot;&gt;)&lt;/span&gt;" style="whiteSpace=wrap;html=1;align=left;container=0;spacingLeft=5;shadow=0;labelBorderColor=none;" parent="1" vertex="1">
          <mxGeometry x="-3457" y="56.11" width="533" height="59.15" as="geometry" />
        </mxCell>
        <mxCell id="54rXU-yoeSsOBFBmQ2Yl-146" value="&lt;span style=&quot;text-align: left;&quot;&gt;(&lt;/span&gt;&lt;b style=&quot;text-align: left; border-color: var(--border-color); font-size: 11px;&quot;&gt;doctor_id, patient_id, date, hour&lt;/b&gt;&lt;span style=&quot;text-align: left; font-size: 11px;&quot;&gt;)&lt;/span&gt;" style="whiteSpace=wrap;html=1;align=center;container=0;shadow=0;labelBorderColor=none;" parent="1" vertex="1">
          <mxGeometry x="-2903" y="56.10649572649559" width="141" height="59.153846153846146" as="geometry" />
        </mxCell>
        <mxCell id="54rXU-yoeSsOBFBmQ2Yl-147" value="&lt;div style=&quot;text-align: center;&quot;&gt;&lt;div&gt;&lt;font color=&quot;#3399ff&quot;&gt;&lt;b&gt;&lt;br&gt;&lt;/b&gt;&lt;/font&gt;&lt;/div&gt;&lt;/div&gt;" style="whiteSpace=wrap;html=1;align=left;container=0;glass=0;shadow=0;labelBorderColor=none;" parent="1" vertex="1">
          <mxGeometry x="-2741" y="233.56" width="295" height="59.15" as="geometry" />
        </mxCell>
        <mxCell id="54rXU-yoeSsOBFBmQ2Yl-148" value="&lt;b style=&quot;border-color: var(--border-color);&quot;&gt;doctors&lt;/b&gt;" style="whiteSpace=wrap;html=1;align=center;container=0;shadow=0;labelBorderColor=none;fillColor=none;strokeColor=default;" parent="1" vertex="1">
          <mxGeometry x="-3645" y="-62.36" width="167" height="59.15" as="geometry" />
        </mxCell>
        <mxCell id="54rXU-yoeSsOBFBmQ2Yl-149" value="&lt;b style=&quot;border-color: var(--border-color);&quot;&gt;users&lt;/b&gt;" style="whiteSpace=wrap;html=1;align=center;container=0;shadow=0;labelBorderColor=none;fillColor=none;strokeColor=default;" parent="1" vertex="1">
          <mxGeometry x="-3645" y="-180.66" width="167" height="59.15" as="geometry" />
        </mxCell>
        <mxCell id="54rXU-yoeSsOBFBmQ2Yl-150" value="(&lt;b style=&quot;border-color: var(--border-color); font-size: 11px;&quot;&gt;doctor_id&lt;/b&gt;&lt;span style=&quot;border-color: var(--border-color); font-size: 11px;&quot;&gt;, salary&lt;/span&gt;&lt;span style=&quot;font-size: 11px;&quot;&gt;)&lt;/span&gt;" style="whiteSpace=wrap;html=1;align=left;container=0;spacingLeft=5;shadow=0;labelBorderColor=none;" parent="1" vertex="1">
          <mxGeometry x="-3457" y="-62.36" width="533" height="59.15" as="geometry" />
        </mxCell>
        <mxCell id="54rXU-yoeSsOBFBmQ2Yl-151" value="(&lt;b style=&quot;border-color: var(--border-color); font-size: 11px;&quot;&gt;user_id&lt;/b&gt;&lt;span style=&quot;font-size: 11px;&quot;&gt;, name, birth_date, email, password, phone, register_ts)&lt;/span&gt;" style="html=1;align=left;container=0;whiteSpace=wrap;labelBorderColor=none;labelBackgroundColor=none;spacingLeft=5;shadow=0;" parent="1" vertex="1">
          <mxGeometry x="-3457" y="-180.66" width="533" height="59.15" as="geometry" />
        </mxCell>
        <mxCell id="54rXU-yoeSsOBFBmQ2Yl-152" value="&lt;b style=&quot;text-align: left; border-color: var(--border-color); font-size: 11px;&quot;&gt;user_id&lt;/b&gt;" style="whiteSpace=wrap;html=1;align=center;container=0;shadow=0;labelBorderColor=none;" parent="1" vertex="1">
          <mxGeometry x="-2903" y="-180.66119658119646" width="141" height="59.153846153846146" as="geometry" />
        </mxCell>
        <mxCell id="54rXU-yoeSsOBFBmQ2Yl-153" value="&lt;div style=&quot;text-align: center;&quot;&gt;&lt;ul style=&quot;text-align: left; line-height: 18px;&quot;&gt;&lt;li&gt;&lt;b style=&quot;background-color: initial; border-color: var(--border-color);&quot;&gt;&lt;font style=&quot;border-color: var(--border-color);&quot; color=&quot;#3399ff&quot;&gt;doctor_id&amp;nbsp;&lt;/font&gt;&lt;/b&gt;&lt;span style=&quot;background-color: initial;&quot;&gt;references&amp;nbsp;&lt;b&gt;users&lt;/b&gt;&lt;/span&gt;&lt;/li&gt;&lt;/ul&gt;&lt;/div&gt;" style="whiteSpace=wrap;html=1;align=left;container=0;glass=0;shadow=0;labelBorderColor=none;" parent="1" vertex="1">
          <mxGeometry x="-2741" y="-62.36" width="295" height="59.15" as="geometry" />
        </mxCell>
        <mxCell id="54rXU-yoeSsOBFBmQ2Yl-154" value="&lt;div style=&quot;text-align: center;&quot;&gt;&lt;div&gt;&lt;font color=&quot;#3399ff&quot;&gt;&lt;b&gt;&lt;br&gt;&lt;/b&gt;&lt;/font&gt;&lt;/div&gt;&lt;/div&gt;" style="whiteSpace=wrap;html=1;align=left;container=0;glass=0;shadow=0;labelBorderColor=none;" parent="1" vertex="1">
          <mxGeometry x="-2741" y="-180.66" width="295" height="59.15" as="geometry" />
        </mxCell>
        <mxCell id="54rXU-yoeSsOBFBmQ2Yl-155" value="&lt;b style=&quot;text-align: left; border-color: var(--border-color); font-size: 11px;&quot;&gt;doctor_id&lt;/b&gt;" style="whiteSpace=wrap;html=1;align=center;container=0;shadow=0;labelBorderColor=none;" parent="1" vertex="1">
          <mxGeometry x="-2903" y="-62.35735042735051" width="141" height="59.153846153846146" as="geometry" />
        </mxCell>
        <mxCell id="54rXU-yoeSsOBFBmQ2Yl-160" value="(&lt;b style=&quot;border-color: var(--border-color); font-size: 11px;&quot;&gt;doctor_id, patient_id, date, hour, drug_id&lt;/b&gt;&lt;span style=&quot;font-size: 11px;&quot;&gt;)&lt;/span&gt;" style="whiteSpace=wrap;html=1;align=left;container=0;spacingLeft=5;shadow=0;labelBorderColor=none;" parent="1" vertex="1">
          <mxGeometry x="-3457" y="510.69" width="533" height="59.15" as="geometry" />
        </mxCell>
        <mxCell id="54rXU-yoeSsOBFBmQ2Yl-161" value="&lt;b style=&quot;border-color: var(--border-color);&quot;&gt;&lt;font style=&quot;font-size: 11px;&quot;&gt;prescription_drugs&lt;/font&gt;&lt;/b&gt;" style="whiteSpace=wrap;html=1;align=center;container=0;shadow=0;labelBorderColor=none;fillColor=none;strokeColor=default;" parent="1" vertex="1">
          <mxGeometry x="-3645" y="510.69" width="167" height="59.15" as="geometry" />
        </mxCell>
        <mxCell id="54rXU-yoeSsOBFBmQ2Yl-162" value="&lt;span style=&quot;text-align: left;&quot;&gt;(&lt;/span&gt;&lt;b style=&quot;text-align: left; border-color: var(--border-color); font-size: 11px;&quot;&gt;doctor_id, patient_id, date, hour, drug_id&lt;/b&gt;&lt;span style=&quot;text-align: left; font-size: 11px;&quot;&gt;)&lt;/span&gt;" style="whiteSpace=wrap;html=1;align=center;container=0;shadow=0;labelBorderColor=none;" parent="1" vertex="1">
          <mxGeometry x="-2902.75" y="510.68" width="140.75" height="59.15" as="geometry" />
        </mxCell>
        <mxCell id="54rXU-yoeSsOBFBmQ2Yl-163" value="(&lt;b style=&quot;border-color: var(--border-color); font-size: 11px;&quot;&gt;doctor_id&lt;/b&gt;&lt;u style=&quot;border-color: var(--border-color); font-size: 11px;&quot;&gt;,&lt;/u&gt;&lt;span style=&quot;font-size: 11px;&quot;&gt;&amp;nbsp;&lt;/span&gt;&lt;b style=&quot;border-color: var(--border-color); font-size: 11px;&quot;&gt;speciality_id&lt;/b&gt;&lt;span style=&quot;font-size: 11px;&quot;&gt;)&lt;/span&gt;" style="whiteSpace=wrap;html=1;align=left;container=0;spacingLeft=5;shadow=0;labelBorderColor=none;" parent="1" vertex="1">
          <mxGeometry x="-3457" y="569.85" width="533" height="59.15" as="geometry" />
        </mxCell>
        <mxCell id="54rXU-yoeSsOBFBmQ2Yl-164" value="&lt;b style=&quot;border-color: var(--border-color); font-size: 11px; text-align: left;&quot;&gt;doctor_specialities&lt;/b&gt;" style="whiteSpace=wrap;html=1;align=center;container=0;shadow=0;labelBorderColor=none;fillColor=none;strokeColor=default;" parent="1" vertex="1">
          <mxGeometry x="-3645" y="569.85" width="167" height="59.15" as="geometry" />
        </mxCell>
        <mxCell id="54rXU-yoeSsOBFBmQ2Yl-165" value="&lt;span style=&quot;text-align: left;&quot;&gt;(&lt;/span&gt;&lt;b style=&quot;text-align: left; border-color: var(--border-color); font-size: 11px;&quot;&gt;doctor_id&lt;/b&gt;&lt;u style=&quot;text-align: left; border-color: var(--border-color); font-size: 11px;&quot;&gt;,&lt;/u&gt;&lt;span style=&quot;text-align: left; font-size: 11px;&quot;&gt;&amp;nbsp;&lt;/span&gt;&lt;b style=&quot;text-align: left; border-color: var(--border-color); font-size: 11px;&quot;&gt;speciality_id&lt;/b&gt;&lt;span style=&quot;text-align: left; font-size: 11px;&quot;&gt;)&lt;/span&gt;" style="whiteSpace=wrap;html=1;align=center;container=0;shadow=0;labelBorderColor=none;" parent="1" vertex="1">
          <mxGeometry x="-2902.75" y="569.85" width="140.75" height="59.15" as="geometry" />
        </mxCell>
        <mxCell id="54rXU-yoeSsOBFBmQ2Yl-166" value="(&lt;span style=&quot;border-color: var(--border-color); font-size: 11px;&quot;&gt;&lt;b&gt;doctor_id, clinic_id&lt;/b&gt;&lt;/span&gt;&lt;span style=&quot;font-size: 11px;&quot;&gt;)&lt;/span&gt;" style="whiteSpace=wrap;html=1;align=left;container=0;spacingLeft=5;shadow=0;labelBorderColor=none;" parent="1" vertex="1">
          <mxGeometry x="-3457" y="628.56" width="533" height="59.15" as="geometry" />
        </mxCell>
        <mxCell id="54rXU-yoeSsOBFBmQ2Yl-167" value="&lt;b style=&quot;border-color: var(--border-color); font-size: 11px; text-align: left;&quot;&gt;clinic_doctors&lt;/b&gt;" style="whiteSpace=wrap;html=1;align=center;container=0;shadow=0;labelBorderColor=none;fillColor=none;strokeColor=default;" parent="1" vertex="1">
          <mxGeometry x="-3645" y="629" width="167" height="59.15" as="geometry" />
        </mxCell>
        <mxCell id="54rXU-yoeSsOBFBmQ2Yl-168" value="&lt;span style=&quot;text-align: left;&quot;&gt;(&lt;/span&gt;&lt;span style=&quot;text-align: left; border-color: var(--border-color); font-size: 11px;&quot;&gt;&lt;b&gt;doctor_id, clinic_id&lt;/b&gt;&lt;/span&gt;&lt;span style=&quot;text-align: left; font-size: 11px;&quot;&gt;)&lt;/span&gt;" style="whiteSpace=wrap;html=1;align=center;container=0;shadow=0;labelBorderColor=none;" parent="1" vertex="1">
          <mxGeometry x="-2902.75" y="629" width="140.75" height="59.15" as="geometry" />
        </mxCell>
        <mxCell id="54rXU-yoeSsOBFBmQ2Yl-169" value="&lt;b style=&quot;border-color: var(--border-color); font-size: 11px; text-align: left;&quot;&gt;clinic_specialities&lt;/b&gt;" style="whiteSpace=wrap;html=1;align=center;container=0;shadow=0;labelBorderColor=none;fillColor=none;strokeColor=default;" parent="1" vertex="1">
          <mxGeometry x="-3645" y="688.15" width="167" height="58.85" as="geometry" />
        </mxCell>
        <mxCell id="54rXU-yoeSsOBFBmQ2Yl-170" value="(&lt;b style=&quot;border-color: var(--border-color); font-size: 11px;&quot;&gt;clinic_id&lt;/b&gt;&lt;u style=&quot;border-color: var(--border-color); font-size: 11px;&quot;&gt;,&lt;/u&gt;&lt;span style=&quot;font-size: 11px;&quot;&gt;&amp;nbsp;&lt;/span&gt;&lt;b style=&quot;border-color: var(--border-color); font-size: 11px;&quot;&gt;speciality_id&lt;/b&gt;&lt;span style=&quot;font-size: 11px;&quot;&gt;)&lt;/span&gt;" style="whiteSpace=wrap;html=1;align=left;container=0;spacingLeft=5;shadow=0;labelBorderColor=none;" parent="1" vertex="1">
          <mxGeometry x="-3457" y="687.7" width="533" height="59.3" as="geometry" />
        </mxCell>
        <mxCell id="54rXU-yoeSsOBFBmQ2Yl-171" value="&lt;span style=&quot;text-align: left;&quot;&gt;(&lt;/span&gt;&lt;b style=&quot;text-align: left; border-color: var(--border-color); font-size: 11px;&quot;&gt;clinic_id&lt;/b&gt;&lt;u style=&quot;text-align: left; border-color: var(--border-color); font-size: 11px;&quot;&gt;,&lt;/u&gt;&lt;span style=&quot;text-align: left; font-size: 11px;&quot;&gt;&amp;nbsp;&lt;/span&gt;&lt;b style=&quot;text-align: left; border-color: var(--border-color); font-size: 11px;&quot;&gt;speciality_id&lt;/b&gt;&lt;span style=&quot;text-align: left; font-size: 11px;&quot;&gt;)&lt;/span&gt;" style="whiteSpace=wrap;html=1;align=center;container=0;shadow=0;labelBorderColor=none;" parent="1" vertex="1">
          <mxGeometry x="-2902.75" y="688.15" width="140.75" height="58.85" as="geometry" />
        </mxCell>
        <mxCell id="54rXU-yoeSsOBFBmQ2Yl-172" value="&lt;ul style=&quot;line-height: 18px;&quot;&gt;&lt;li&gt;&lt;b style=&quot;background-color: initial; border-color: var(--border-color);&quot;&gt;&lt;font style=&quot;border-color: var(--border-color);&quot; color=&quot;#3399ff&quot;&gt;drug_id&amp;nbsp;&lt;/font&gt;&lt;/b&gt;&lt;span style=&quot;background-color: initial;&quot;&gt;references&amp;nbsp;&lt;b&gt;drugs&lt;/b&gt;&lt;/span&gt;&lt;/li&gt;&lt;li&gt;&lt;b style=&quot;background-color: initial; border-color: var(--border-color);&quot;&gt;&lt;font style=&quot;border-color: var(--border-color);&quot; color=&quot;#3399ff&quot;&gt;(doctor_id, patient_id, hour, date)&amp;nbsp; &amp;nbsp;&lt;/font&gt;&lt;/b&gt;references&amp;nbsp;&lt;b style=&quot;background-color: initial;&quot;&gt;prescriptions&lt;/b&gt;&lt;/li&gt;&lt;/ul&gt;" style="whiteSpace=wrap;html=1;align=left;container=0;glass=0;shadow=0;labelBorderColor=none;" parent="1" vertex="1">
          <mxGeometry x="-2741" y="510.67" width="295" height="59.15" as="geometry" />
        </mxCell>
        <mxCell id="54rXU-yoeSsOBFBmQ2Yl-173" value="&lt;div style=&quot;&quot;&gt;&lt;ul style=&quot;line-height: 150%;&quot;&gt;&lt;li&gt;&lt;b style=&quot;background-color: initial; border-color: var(--border-color);&quot;&gt;&lt;font style=&quot;border-color: var(--border-color);&quot; color=&quot;#3399ff&quot;&gt;doctor_id&amp;nbsp;&lt;/font&gt;&lt;/b&gt;&lt;span style=&quot;background-color: initial;&quot;&gt;references &lt;b&gt;doctors&lt;/b&gt;&lt;/span&gt;&lt;/li&gt;&lt;li style=&quot;border-color: var(--border-color);&quot;&gt;&lt;b style=&quot;border-color: var(--border-color); background-color: initial;&quot;&gt;&lt;font style=&quot;border-color: var(--border-color);&quot; color=&quot;#3399ff&quot;&gt;speciality_id&amp;nbsp;&lt;/font&gt;&lt;/b&gt;references&amp;nbsp;&lt;b style=&quot;border-color: var(--border-color); background-color: initial;&quot;&gt;specialities&lt;/b&gt;&lt;/li&gt;&lt;/ul&gt;&lt;/div&gt;" style="whiteSpace=wrap;html=1;align=left;container=0;glass=0;shadow=0;labelBorderColor=none;" parent="1" vertex="1">
          <mxGeometry x="-2741" y="569.82" width="295" height="59.15" as="geometry" />
        </mxCell>
        <mxCell id="54rXU-yoeSsOBFBmQ2Yl-174" value="" style="rounded=0;whiteSpace=wrap;html=1;fontFamily=Helvetica;fontSize=11;fontColor=default;align=left;fillColor=#454545;container=0;shadow=0;labelBorderColor=none;" parent="1" vertex="1">
          <mxGeometry x="-3645" y="469.93" width="1464" height="13.15" as="geometry" />
        </mxCell>
        <mxCell id="54rXU-yoeSsOBFBmQ2Yl-175" value="&lt;b style=&quot;border-color: var(--border-color);&quot;&gt;&lt;font style=&quot;font-size: 17px;&quot; color=&quot;#3399ff&quot;&gt;Relations&lt;/font&gt;&lt;/b&gt;" style="whiteSpace=wrap;html=1;align=center;container=0;shadow=0;labelBorderColor=none;" parent="1" vertex="1">
          <mxGeometry x="-3645" y="483.08" width="1464" height="27.61" as="geometry" />
        </mxCell>
        <mxCell id="54rXU-yoeSsOBFBmQ2Yl-176" value="" style="rounded=0;whiteSpace=wrap;html=1;fontFamily=Helvetica;fontSize=11;fontColor=default;align=left;fillColor=#454545;container=0;shadow=0;labelBorderColor=none;" parent="1" vertex="1">
          <mxGeometry x="-3645" y="-221.41" width="1464" height="13.15" as="geometry" />
        </mxCell>
        <mxCell id="54rXU-yoeSsOBFBmQ2Yl-177" value="&lt;b style=&quot;border-color: var(--border-color); color: rgb(255, 51, 51);&quot;&gt;&lt;font style=&quot;font-size: 17px;&quot;&gt;Entities&lt;/font&gt;&lt;/b&gt;" style="whiteSpace=wrap;html=1;align=center;container=0;shadow=0;labelBorderColor=none;" parent="1" vertex="1">
          <mxGeometry x="-3645" y="-208.27" width="1464" height="27.61" as="geometry" />
        </mxCell>
        <mxCell id="54rXU-yoeSsOBFBmQ2Yl-178" value="&lt;b style=&quot;border-color: var(--border-color);&quot;&gt;specialities&lt;/b&gt;" style="whiteSpace=wrap;html=1;align=center;container=0;shadow=0;labelBorderColor=none;fillColor=none;strokeColor=default;" parent="1" vertex="1">
          <mxGeometry x="-3645" y="292.7" width="167" height="59.15" as="geometry" />
        </mxCell>
        <mxCell id="54rXU-yoeSsOBFBmQ2Yl-179" value="(&lt;b style=&quot;border-color: var(--border-color); font-size: 11px;&quot;&gt;&lt;b style=&quot;font-size: 12px; text-align: center; border-color: var(--border-color);&quot;&gt;speciality&lt;/b&gt;_id&lt;/b&gt;&lt;span style=&quot;font-size: 11px;&quot;&gt;, name)&lt;/span&gt;" style="whiteSpace=wrap;html=1;align=left;container=0;spacingLeft=5;shadow=0;labelBorderColor=none;" parent="1" vertex="1">
          <mxGeometry x="-3457" y="292.72" width="533" height="59.15" as="geometry" />
        </mxCell>
        <mxCell id="54rXU-yoeSsOBFBmQ2Yl-180" value="&lt;div style=&quot;text-align: center;&quot;&gt;&lt;div&gt;&lt;font color=&quot;#3399ff&quot;&gt;&lt;b&gt;&lt;br&gt;&lt;/b&gt;&lt;/font&gt;&lt;/div&gt;&lt;/div&gt;" style="whiteSpace=wrap;html=1;align=left;container=0;glass=0;shadow=0;labelBorderColor=none;" parent="1" vertex="1">
          <mxGeometry x="-2741" y="292.69" width="295" height="59.15" as="geometry" />
        </mxCell>
        <mxCell id="54rXU-yoeSsOBFBmQ2Yl-181" value="&lt;b style=&quot;text-align: left; border-color: var(--border-color); font-size: 11px;&quot;&gt;&lt;b style=&quot;font-size: 12px; text-align: center; border-color: var(--border-color);&quot;&gt;speciality&lt;/b&gt;_id&lt;/b&gt;" style="whiteSpace=wrap;html=1;align=center;container=0;shadow=0;labelBorderColor=none;" parent="1" vertex="1">
          <mxGeometry x="-2903" y="292.6926495726496" width="141" height="59.153846153846146" as="geometry" />
        </mxCell>
        <mxCell id="54rXU-yoeSsOBFBmQ2Yl-182" value="&lt;div style=&quot;&quot;&gt;&lt;ul style=&quot;line-height: 150%;&quot;&gt;&lt;li&gt;&lt;b style=&quot;background-color: initial; border-color: var(--border-color);&quot;&gt;&lt;font style=&quot;border-color: var(--border-color);&quot; color=&quot;#3399ff&quot;&gt;doctor_id&amp;nbsp;&lt;/font&gt;&lt;/b&gt;&lt;span style=&quot;background-color: initial;&quot;&gt;references&amp;nbsp;&lt;b&gt;doctors&lt;/b&gt;&lt;/span&gt;&lt;/li&gt;&lt;li style=&quot;border-color: var(--border-color);&quot;&gt;&lt;b style=&quot;border-color: var(--border-color); background-color: initial;&quot;&gt;&lt;font style=&quot;border-color: var(--border-color);&quot; color=&quot;#3399ff&quot;&gt;patient_id&amp;nbsp;&lt;/font&gt;&lt;/b&gt;references&amp;nbsp;&lt;b&gt;patients&lt;/b&gt;&lt;/li&gt;&lt;/ul&gt;&lt;/div&gt;" style="whiteSpace=wrap;html=1;align=left;container=0;glass=0;shadow=0;labelBorderColor=none;" parent="1" vertex="1">
          <mxGeometry x="-2741" y="56.1" width="295" height="59.15" as="geometry" />
        </mxCell>
        <mxCell id="54rXU-yoeSsOBFBmQ2Yl-183" value="&lt;b style=&quot;border-color: var(--border-color);&quot;&gt;&lt;font color=&quot;#00994d&quot;&gt;Index&lt;/font&gt;&lt;/b&gt;" style="whiteSpace=wrap;html=1;align=center;container=0;shadow=0;labelBorderColor=none;" parent="1" vertex="1">
          <mxGeometry x="-2425" y="-260.8500000000001" width="244" height="39.43589743589743" as="geometry" />
        </mxCell>
        <mxCell id="54rXU-yoeSsOBFBmQ2Yl-184" value="" style="rounded=0;whiteSpace=wrap;html=1;fontFamily=Helvetica;fontSize=11;fontColor=default;align=left;fillColor=#454545;container=0;shadow=0;labelBorderColor=none;" parent="1" vertex="1">
          <mxGeometry x="-2446" y="-261" width="21" height="1008" as="geometry" />
        </mxCell>
        <mxCell id="54rXU-yoeSsOBFBmQ2Yl-185" value="&lt;div style=&quot;text-align: center;&quot;&gt;&lt;div&gt;&lt;font color=&quot;#3399ff&quot;&gt;&lt;b&gt;&lt;br&gt;&lt;/b&gt;&lt;/font&gt;&lt;/div&gt;&lt;/div&gt;" style="whiteSpace=wrap;html=1;align=left;container=0;glass=0;shadow=0;labelBorderColor=none;" parent="1" vertex="1">
          <mxGeometry x="-2425" y="-180.5" width="244" height="59.15" as="geometry" />
        </mxCell>
        <mxCell id="54rXU-yoeSsOBFBmQ2Yl-187" value="&lt;div style=&quot;text-align: center;&quot;&gt;&lt;div&gt;&lt;font color=&quot;#3399ff&quot;&gt;&lt;b&gt;&lt;br&gt;&lt;/b&gt;&lt;/font&gt;&lt;/div&gt;&lt;/div&gt;" style="whiteSpace=wrap;html=1;align=left;container=0;glass=0;shadow=0;labelBorderColor=none;" parent="1" vertex="1">
          <mxGeometry x="-2425" y="292.69" width="244" height="59.15" as="geometry" />
        </mxCell>
        <mxCell id="54rXU-yoeSsOBFBmQ2Yl-188" value="&lt;div style=&quot;text-align: center;&quot;&gt;&lt;div&gt;&lt;font color=&quot;#3399ff&quot;&gt;&lt;b&gt;&lt;br&gt;&lt;/b&gt;&lt;/font&gt;&lt;/div&gt;&lt;/div&gt;" style="whiteSpace=wrap;html=1;align=left;container=0;glass=0;shadow=0;labelBorderColor=none;" parent="1" vertex="1">
          <mxGeometry x="-2425" y="233.55" width="244" height="59.15" as="geometry" />
        </mxCell>
        <mxCell id="54rXU-yoeSsOBFBmQ2Yl-189" value="&lt;div style=&quot;text-align: center;&quot;&gt;&lt;div&gt;&lt;font color=&quot;#3399ff&quot;&gt;&lt;b&gt;&lt;br&gt;&lt;/b&gt;&lt;/font&gt;&lt;/div&gt;&lt;/div&gt;" style="whiteSpace=wrap;html=1;align=left;container=0;glass=0;shadow=0;labelBorderColor=none;" parent="1" vertex="1">
          <mxGeometry x="-2425" y="56.1" width="244" height="59.15" as="geometry" />
        </mxCell>
        <mxCell id="54rXU-yoeSsOBFBmQ2Yl-194" value="&lt;div style=&quot;&quot;&gt;&lt;div&gt;&lt;span style=&quot;font-size: 11px;&quot;&gt;&lt;b&gt;&lt;br&gt;&lt;/b&gt;&lt;/span&gt;&lt;/div&gt;&lt;/div&gt;" style="whiteSpace=wrap;html=1;align=left;container=0;glass=0;shadow=0;labelBorderColor=none;" parent="1" vertex="1">
          <mxGeometry x="-2425" y="410.874615384615" width="244.00000000000003" height="59.153846153846146" as="geometry" />
        </mxCell>
        <mxCell id="54rXU-yoeSsOBFBmQ2Yl-195" value="&lt;div style=&quot;&quot;&gt;&lt;div&gt;&lt;span style=&quot;font-size: 11px;&quot;&gt;&lt;b&gt;&lt;br&gt;&lt;/b&gt;&lt;/span&gt;&lt;/div&gt;&lt;/div&gt;" style="whiteSpace=wrap;html=1;align=left;container=0;glass=0;shadow=0;labelBorderColor=none;" parent="1" vertex="1">
          <mxGeometry x="-2425" y="-62.21" width="244" height="59.15" as="geometry" />
        </mxCell>
        <mxCell id="54rXU-yoeSsOBFBmQ2Yl-196" value="&lt;div style=&quot;&quot;&gt;&lt;ul style=&quot;line-height: 150%;&quot;&gt;&lt;li&gt;&lt;b style=&quot;background-color: initial; border-color: var(--border-color);&quot;&gt;&lt;font style=&quot;border-color: var(--border-color);&quot; color=&quot;#3399ff&quot;&gt;doctor_id&amp;nbsp;&lt;/font&gt;&lt;/b&gt;&lt;span style=&quot;background-color: initial;&quot;&gt;references&amp;nbsp;&lt;b&gt;doctor&lt;/b&gt;&lt;/span&gt;&lt;/li&gt;&lt;li&gt;&lt;b style=&quot;background-color: initial; border-color: var(--border-color);&quot;&gt;&lt;font style=&quot;border-color: var(--border-color);&quot; color=&quot;#3399ff&quot;&gt;clinic_id&amp;nbsp;&lt;/font&gt;&lt;/b&gt;&lt;span style=&quot;background-color: initial;&quot;&gt;references&amp;nbsp;&lt;/span&gt;&lt;b style=&quot;background-color: initial; border-color: var(--border-color);&quot;&gt;clinic&lt;/b&gt;&lt;br&gt;&lt;/li&gt;&lt;/ul&gt;&lt;/div&gt;" style="whiteSpace=wrap;html=1;align=left;container=0;glass=0;shadow=0;labelBorderColor=none;verticalAlign=middle;" parent="1" vertex="1">
          <mxGeometry x="-2741" y="628.97" width="295" height="59.15" as="geometry" />
        </mxCell>
        <mxCell id="54rXU-yoeSsOBFBmQ2Yl-197" value="&lt;div style=&quot;&quot;&gt;&lt;ul style=&quot;line-height: 150%;&quot;&gt;&lt;li&gt;&lt;b style=&quot;background-color: initial; border-color: var(--border-color);&quot;&gt;&lt;font style=&quot;border-color: var(--border-color);&quot; color=&quot;#3399ff&quot;&gt;clinic_id&amp;nbsp;&lt;/font&gt;&lt;/b&gt;&lt;span style=&quot;background-color: initial;&quot;&gt;references&amp;nbsp;&lt;b&gt;clinics&lt;/b&gt;&lt;/span&gt;&lt;/li&gt;&lt;li style=&quot;border-color: var(--border-color);&quot;&gt;&lt;b style=&quot;border-color: var(--border-color); background-color: initial;&quot;&gt;&lt;font style=&quot;border-color: var(--border-color);&quot; color=&quot;#3399ff&quot;&gt;speciality_id&amp;nbsp;&lt;/font&gt;&lt;/b&gt;references&amp;nbsp;&lt;b style=&quot;border-color: var(--border-color); background-color: initial;&quot;&gt;specialities&lt;/b&gt;&lt;/li&gt;&lt;/ul&gt;&lt;/div&gt;" style="whiteSpace=wrap;html=1;align=left;container=0;glass=0;shadow=0;labelBorderColor=none;" parent="1" vertex="1">
          <mxGeometry x="-2741" y="688.15" width="295" height="58.85" as="geometry" />
        </mxCell>
        <mxCell id="T6x4TMaedT_7HnLKrfu--717" value="&lt;b style=&quot;border-color: var(--border-color);&quot;&gt;drugs&lt;/b&gt;" style="whiteSpace=wrap;html=1;align=center;container=0;shadow=0;labelBorderColor=none;fillColor=none;strokeColor=default;" vertex="1" parent="1">
          <mxGeometry x="-3645" y="-121.51" width="167" height="59.15" as="geometry" />
        </mxCell>
        <mxCell id="T6x4TMaedT_7HnLKrfu--718" value="(&lt;b style=&quot;border-color: var(--border-color); font-size: 11px;&quot;&gt;drug_id&lt;/b&gt;&lt;span style=&quot;font-size: 11px;&quot;&gt;, name)&lt;/span&gt;" style="html=1;align=left;container=0;whiteSpace=wrap;labelBorderColor=none;labelBackgroundColor=none;spacingLeft=5;shadow=0;" vertex="1" parent="1">
          <mxGeometry x="-3457" y="-121.51" width="533" height="59.15" as="geometry" />
        </mxCell>
        <mxCell id="T6x4TMaedT_7HnLKrfu--719" value="&lt;b style=&quot;text-align: left; border-color: var(--border-color); font-size: 11px;&quot;&gt;drug_id&lt;/b&gt;" style="whiteSpace=wrap;html=1;align=center;container=0;shadow=0;labelBorderColor=none;" vertex="1" parent="1">
          <mxGeometry x="-2903" y="-121.51119658119646" width="141" height="59.153846153846146" as="geometry" />
        </mxCell>
        <mxCell id="T6x4TMaedT_7HnLKrfu--720" value="&lt;div style=&quot;text-align: center;&quot;&gt;&lt;div&gt;&lt;font color=&quot;#3399ff&quot;&gt;&lt;b&gt;&lt;br&gt;&lt;/b&gt;&lt;/font&gt;&lt;/div&gt;&lt;/div&gt;" style="whiteSpace=wrap;html=1;align=left;container=0;glass=0;shadow=0;labelBorderColor=none;" vertex="1" parent="1">
          <mxGeometry x="-2741" y="-121.51" width="295" height="59.15" as="geometry" />
        </mxCell>
        <mxCell id="T6x4TMaedT_7HnLKrfu--721" value="&lt;div style=&quot;text-align: center;&quot;&gt;&lt;div&gt;&lt;font color=&quot;#3399ff&quot;&gt;&lt;b&gt;&lt;br&gt;&lt;/b&gt;&lt;/font&gt;&lt;/div&gt;&lt;/div&gt;" style="whiteSpace=wrap;html=1;align=left;container=0;glass=0;shadow=0;labelBorderColor=none;" vertex="1" parent="1">
          <mxGeometry x="-2425" y="-121.35" width="244" height="59.15" as="geometry" />
        </mxCell>
        <mxCell id="T6x4TMaedT_7HnLKrfu--722" value="&lt;b style=&quot;border-color: var(--border-color);&quot;&gt;patients&lt;/b&gt;" style="whiteSpace=wrap;html=1;align=center;container=0;shadow=0;labelBorderColor=none;fillColor=none;strokeColor=default;" vertex="1" parent="1">
          <mxGeometry x="-3645" y="-3.21" width="167" height="59.15" as="geometry" />
        </mxCell>
        <mxCell id="T6x4TMaedT_7HnLKrfu--723" value="(&lt;b style=&quot;border-color: var(--border-color); font-size: 11px;&quot;&gt;patient_id&lt;/b&gt;&lt;span style=&quot;font-size: 11px;&quot;&gt;)&lt;/span&gt;" style="whiteSpace=wrap;html=1;align=left;container=0;spacingLeft=5;shadow=0;labelBorderColor=none;" vertex="1" parent="1">
          <mxGeometry x="-3457" y="-3.210000000000001" width="533" height="59.15" as="geometry" />
        </mxCell>
        <mxCell id="T6x4TMaedT_7HnLKrfu--724" value="&lt;div style=&quot;text-align: center;&quot;&gt;&lt;ul style=&quot;text-align: left; line-height: 18px;&quot;&gt;&lt;li&gt;&lt;b style=&quot;background-color: initial; border-color: var(--border-color);&quot;&gt;&lt;font style=&quot;border-color: var(--border-color);&quot; color=&quot;#3399ff&quot;&gt;patient_id&amp;nbsp;&lt;/font&gt;&lt;/b&gt;&lt;span style=&quot;background-color: initial;&quot;&gt;references&amp;nbsp;&lt;b&gt;users&lt;/b&gt;&lt;/span&gt;&lt;/li&gt;&lt;/ul&gt;&lt;/div&gt;" style="whiteSpace=wrap;html=1;align=left;container=0;glass=0;shadow=0;labelBorderColor=none;" vertex="1" parent="1">
          <mxGeometry x="-2741" y="-3.21" width="295" height="59.15" as="geometry" />
        </mxCell>
        <mxCell id="T6x4TMaedT_7HnLKrfu--725" value="&lt;b style=&quot;text-align: left; border-color: var(--border-color); font-size: 11px;&quot;&gt;patient_id&lt;/b&gt;" style="whiteSpace=wrap;html=1;align=center;container=0;shadow=0;labelBorderColor=none;" vertex="1" parent="1">
          <mxGeometry x="-2903" y="-3.2073504273505122" width="141" height="59.153846153846146" as="geometry" />
        </mxCell>
        <mxCell id="T6x4TMaedT_7HnLKrfu--726" value="&lt;div style=&quot;&quot;&gt;&lt;div&gt;&lt;span style=&quot;font-size: 11px;&quot;&gt;&lt;b&gt;&lt;br&gt;&lt;/b&gt;&lt;/span&gt;&lt;/div&gt;&lt;/div&gt;" style="whiteSpace=wrap;html=1;align=left;container=0;glass=0;shadow=0;labelBorderColor=none;" vertex="1" parent="1">
          <mxGeometry x="-2425" y="-3.06" width="244" height="59.15" as="geometry" />
        </mxCell>
        <mxCell id="T6x4TMaedT_7HnLKrfu--727" value="&lt;font color=&quot;#000000&quot;&gt;salary&lt;/font&gt;" style="ellipse;whiteSpace=wrap;html=1;align=center;rounded=1;labelBackgroundColor=none;fontFamily=Helvetica;fontSize=11;fontColor=default;" vertex="1" parent="1">
          <mxGeometry x="-1828" y="61.62" width="42" height="27.25" as="geometry" />
        </mxCell>
        <mxCell id="T6x4TMaedT_7HnLKrfu--735" value="&lt;b style=&quot;border-color: var(--border-color);&quot;&gt;presential_appointments&lt;/b&gt;" style="whiteSpace=wrap;html=1;align=center;container=0;shadow=0;labelBorderColor=none;fillColor=none;strokeColor=default;" vertex="1" parent="1">
          <mxGeometry x="-3645" y="174.42" width="167" height="59.15" as="geometry" />
        </mxCell>
        <mxCell id="T6x4TMaedT_7HnLKrfu--736" value="(&lt;b style=&quot;border-color: var(--border-color); font-size: 11px;&quot;&gt;patient_id, doctor_id, date, hour&lt;/b&gt;&lt;span style=&quot;border-color: var(--border-color); font-size: 11px;&quot;&gt;, duration, &lt;b&gt;&lt;font color=&quot;#3399ff&quot;&gt;clinic_id&lt;/font&gt;&lt;/b&gt;&lt;/span&gt;&lt;span style=&quot;font-size: 11px;&quot;&gt;)&lt;/span&gt;" style="whiteSpace=wrap;html=1;align=left;container=0;spacingLeft=5;shadow=0;labelBorderColor=none;" vertex="1" parent="1">
          <mxGeometry x="-3457" y="174.42" width="533" height="59.15" as="geometry" />
        </mxCell>
        <mxCell id="T6x4TMaedT_7HnLKrfu--737" value="&lt;span style=&quot;text-align: left;&quot;&gt;(&lt;/span&gt;&lt;b style=&quot;text-align: left; border-color: var(--border-color); font-size: 11px;&quot;&gt;patient_id, doctor_id, date, hour&lt;/b&gt;&lt;span style=&quot;text-align: left; font-size: 11px;&quot;&gt;)&lt;/span&gt;" style="whiteSpace=wrap;html=1;align=center;container=0;shadow=0;labelBorderColor=none;" vertex="1" parent="1">
          <mxGeometry x="-2903" y="174.42" width="141" height="59.15" as="geometry" />
        </mxCell>
        <mxCell id="T6x4TMaedT_7HnLKrfu--738" value="&lt;div style=&quot;&quot;&gt;&lt;ul style=&quot;line-height: 18px;&quot;&gt;&lt;li&gt;&lt;b style=&quot;background-color: initial; border-color: var(--border-color);&quot;&gt;&lt;font style=&quot;border-color: var(--border-color);&quot; color=&quot;#3399ff&quot;&gt;patient_id&amp;nbsp;&lt;/font&gt;&lt;/b&gt;&lt;span style=&quot;background-color: initial;&quot;&gt;references&amp;nbsp;&lt;b&gt;patients&lt;/b&gt;&lt;/span&gt;&lt;/li&gt;&lt;li style=&quot;border-color: var(--border-color);&quot;&gt;&lt;b style=&quot;border-color: var(--border-color); background-color: initial;&quot;&gt;&lt;font style=&quot;border-color: var(--border-color);&quot; color=&quot;#3399ff&quot;&gt;doctor_id&amp;nbsp;&lt;/font&gt;&lt;/b&gt;references&amp;nbsp;&lt;b&gt;doctors&lt;/b&gt;&lt;/li&gt;&lt;li style=&quot;border-color: var(--border-color);&quot;&gt;&lt;b style=&quot;border-color: var(--border-color); background-color: initial;&quot;&gt;&lt;font style=&quot;border-color: var(--border-color);&quot; color=&quot;#3399ff&quot;&gt;clinic_id&amp;nbsp;&lt;/font&gt;&lt;/b&gt;references&amp;nbsp;&lt;b&gt;clinics&lt;br&gt;&lt;/b&gt;&lt;/li&gt;&lt;/ul&gt;&lt;/div&gt;" style="whiteSpace=wrap;html=1;align=left;container=0;glass=0;shadow=0;labelBorderColor=none;" vertex="1" parent="1">
          <mxGeometry x="-2741" y="174.41" width="295" height="59.15" as="geometry" />
        </mxCell>
        <mxCell id="T6x4TMaedT_7HnLKrfu--739" value="&lt;div style=&quot;text-align: center;&quot;&gt;&lt;div&gt;&lt;font color=&quot;#3399ff&quot;&gt;&lt;b&gt;&lt;br&gt;&lt;/b&gt;&lt;/font&gt;&lt;/div&gt;&lt;/div&gt;" style="whiteSpace=wrap;html=1;align=left;container=0;glass=0;shadow=0;labelBorderColor=none;" vertex="1" parent="1">
          <mxGeometry x="-2425" y="174.41" width="244" height="59.15" as="geometry" />
        </mxCell>
        <mxCell id="T6x4TMaedT_7HnLKrfu--750" value="&lt;div style=&quot;&quot;&gt;&lt;div&gt;&lt;span style=&quot;font-size: 11px;&quot;&gt;&lt;b&gt;&lt;br&gt;&lt;/b&gt;&lt;/span&gt;&lt;/div&gt;&lt;/div&gt;" style="whiteSpace=wrap;html=1;align=left;container=0;glass=0;shadow=0;labelBorderColor=none;" vertex="1" parent="1">
          <mxGeometry x="-2425" y="510.694615384615" width="244.00000000000003" height="59.153846153846146" as="geometry" />
        </mxCell>
        <mxCell id="T6x4TMaedT_7HnLKrfu--751" value="&lt;div style=&quot;&quot;&gt;&lt;div&gt;&lt;span style=&quot;font-size: 11px;&quot;&gt;&lt;b&gt;&lt;br&gt;&lt;/b&gt;&lt;/span&gt;&lt;/div&gt;&lt;/div&gt;" style="whiteSpace=wrap;html=1;align=left;container=0;glass=0;shadow=0;labelBorderColor=none;" vertex="1" parent="1">
          <mxGeometry x="-2425" y="569.8146153846149" width="244.00000000000003" height="59.153846153846146" as="geometry" />
        </mxCell>
        <mxCell id="T6x4TMaedT_7HnLKrfu--752" value="&lt;div style=&quot;&quot;&gt;&lt;div&gt;&lt;span style=&quot;font-size: 11px;&quot;&gt;&lt;b&gt;&lt;br&gt;&lt;/b&gt;&lt;/span&gt;&lt;/div&gt;&lt;/div&gt;" style="whiteSpace=wrap;html=1;align=left;container=0;glass=0;shadow=0;labelBorderColor=none;" vertex="1" parent="1">
          <mxGeometry x="-2425" y="687.7046153846148" width="244.00000000000003" height="59.153846153846146" as="geometry" />
        </mxCell>
        <mxCell id="T6x4TMaedT_7HnLKrfu--753" value="&lt;div style=&quot;&quot;&gt;&lt;div&gt;&lt;span style=&quot;font-size: 11px;&quot;&gt;&lt;b&gt;&lt;br&gt;&lt;/b&gt;&lt;/span&gt;&lt;/div&gt;&lt;/div&gt;" style="whiteSpace=wrap;html=1;align=left;container=0;glass=0;shadow=0;labelBorderColor=none;" vertex="1" parent="1">
          <mxGeometry x="-2425" y="628.5546153846149" width="244.00000000000003" height="59.153846153846146" as="geometry" />
        </mxCell>
      </root>
    </mxGraphModel>
  </diagram>
</mxfile>
